<?xml version="1.0" encoding="utf-8"?>
<svg viewBox="13.136 8.648 207.609 128.543" xmlns="http://www.w3.org/2000/svg">
  <defs>
    <clipPath id="clippath0" transform="">
      <path d="M 0 0.0000225306 L 756 0.0000225306 L 756 1008.0000225306 L 0 1008.0000225306 Z" style="fill: none; clip-rule: nonzero;"/>
    </clipPath>
    <clipPath id="clippath1" transform="">
      <path d="M 0 0 L 756 0 L 756 1008 L 0 1008 Z" style="fill: none; clip-rule: nonzero;"/>
    </clipPath>
    <clipPath id="clippath2" transform="">
      <path d="M 233.1831 895.0103 C 209.4512 871.2784 171.7161 870.5365 148.8994 893.3532 C 121.3572 920.8954 79.49153 934.1141 23.30237 933.0093 C 79.49153 934.1141 121.9096 948.99 150.5565 977.6369 C 174.2885 1001.369 212.0236 1002.111 234.8403 979.2941 C 257.657 956.4774 256.915 918.7422 233.1831 895.0103 Z" style="fill: none; clip-rule: nonzero;"/>
    </clipPath>
    <clipPath id="clippath3" transform="" style="clip-path: url(#clippath2);">
      <path d="M 0 0 L 756 0 L 756 1008 L 0 1008 Z" style="fill: none; clip-rule: nonzero;"/>
    </clipPath>
    <linearGradient id="shading0" gradientUnits="userSpaceOnUse" x1="1113012" y1="-3087084" x2="1113012" y2="-771771">
      <stop offset="0" style="stop-color: transparent;"/>
      <stop offset="0" style="stop-color: rgb(127, 127, 127);"/>
      <stop offset="0.1" style="stop-color: rgb(150, 150, 150);"/>
      <stop offset="0.2" style="stop-color: rgb(166, 166, 166);"/>
      <stop offset="0.3" style="stop-color: rgb(169, 169, 170);"/>
      <stop offset="0.4" style="stop-color: rgb(180, 181, 181);"/>
      <stop offset="0.5" style="stop-color: rgb(191, 192, 193);"/>
      <stop offset="0.6" style="stop-color: rgb(202, 203, 205);"/>
      <stop offset="0.7" style="stop-color: rgb(213, 214, 217);"/>
      <stop offset="0.8" style="stop-color: rgb(224, 226, 228);"/>
      <stop offset="0.9" style="stop-color: rgb(235, 237, 240);"/>
      <stop offset="1" style="stop-color: rgb(246, 248, 252);"/>
      <stop offset="1" style="stop-color: transparent;"/>
    </linearGradient>
    <linearGradient id="shading1" gradientUnits="userSpaceOnUse" x1="1113012" y1="-771771" x2="1113012" y2="1543542">
      <stop offset="0" style="stop-color: transparent;"/>
      <stop offset="0" style="stop-color: rgb(246, 248, 252);"/>
      <stop offset="0.1" style="stop-color: rgb(235, 237, 240);"/>
      <stop offset="0.2" style="stop-color: rgb(224, 226, 228);"/>
      <stop offset="0.3" style="stop-color: rgb(213, 214, 217);"/>
      <stop offset="0.4" style="stop-color: rgb(202, 203, 205);"/>
      <stop offset="0.5" style="stop-color: rgb(191, 192, 193);"/>
      <stop offset="0.6" style="stop-color: rgb(180, 181, 181);"/>
      <stop offset="0.7" style="stop-color: rgb(169, 169, 170);"/>
      <stop offset="0.8" style="stop-color: rgb(166, 166, 166);"/>
      <stop offset="0.9" style="stop-color: rgb(150, 150, 150);"/>
      <stop offset="1" style="stop-color: rgb(127, 127, 127);"/>
      <stop offset="1" style="stop-color: transparent;"/>
    </linearGradient>
    <linearGradient id="shading2" gradientUnits="userSpaceOnUse" x1="1113012" y1="1543542" x2="1113012" y2="3858855">
      <stop offset="0" style="stop-color: transparent;"/>
      <stop offset="0" style="stop-color: rgb(127, 127, 127);"/>
      <stop offset="0.1" style="stop-color: rgb(150, 150, 150);"/>
      <stop offset="0.2" style="stop-color: rgb(166, 166, 166);"/>
      <stop offset="0.3" style="stop-color: rgb(169, 169, 170);"/>
      <stop offset="0.4" style="stop-color: rgb(180, 181, 181);"/>
      <stop offset="0.5" style="stop-color: rgb(191, 192, 193);"/>
      <stop offset="0.6" style="stop-color: rgb(202, 203, 205);"/>
      <stop offset="0.7" style="stop-color: rgb(213, 214, 217);"/>
      <stop offset="0.8" style="stop-color: rgb(224, 226, 228);"/>
      <stop offset="0.9" style="stop-color: rgb(235, 237, 240);"/>
      <stop offset="1" style="stop-color: rgb(246, 248, 252);"/>
      <stop offset="1" style="stop-color: transparent;"/>
    </linearGradient>
    <clipPath id="clippath4" transform="">
      <path d="M 0 0 L 756 0 L 756 1008 L 0 1008 Z" style="fill: none; clip-rule: nonzero;"/>
    </clipPath>
    <clipPath id="clippath5" transform="">
      <path d="M 237.1014 948.1211 C 226.8581 937.8777 210.4306 937.6974 200.4098 947.7183 C 188.3135 959.8145 170.0348 965.7284 145.5737 965.4599 C 170.0348 965.7284 188.4478 972.0451 200.8126 984.4099 C 211.0559 994.6533 227.4834 994.8336 237.5042 984.8128 C 247.5251 974.7919 247.3448 958.3645 237.1014 948.1211 Z" style="fill: none; clip-rule: nonzero;"/>
    </clipPath>
    <clipPath id="clippath6" transform="" style="clip-path: url(#clippath5);">
      <path d="M 0 0 L 756 0 L 756 1008 L 0 1008 Z" style="fill: none; clip-rule: nonzero;"/>
    </clipPath>
    <linearGradient id="shading3" gradientUnits="userSpaceOnUse" x1="488824.5" y1="-1332472" x2="488824.5" y2="-333118">
      <stop offset="0" style="stop-color: transparent;"/>
      <stop offset="0" style="stop-color: rgb(244, 101, 99);"/>
      <stop offset="0.1" style="stop-color: rgb(244, 101, 99);"/>
      <stop offset="0.2" style="stop-color: rgb(244, 101, 99);"/>
      <stop offset="0.3" style="stop-color: rgb(244, 101, 99);"/>
      <stop offset="0.4" style="stop-color: rgb(244, 101, 99);"/>
      <stop offset="0.5" style="stop-color: rgb(244, 101, 99);"/>
      <stop offset="0.6" style="stop-color: rgb(244, 101, 99);"/>
      <stop offset="0.7" style="stop-color: rgb(244, 101, 99);"/>
      <stop offset="0.8" style="stop-color: rgb(244, 101, 99);"/>
      <stop offset="0.9" style="stop-color: rgb(244, 101, 99);"/>
      <stop offset="1" style="stop-color: rgb(244, 101, 99);"/>
      <stop offset="1" style="stop-color: transparent;"/>
    </linearGradient>
    <linearGradient id="shading4" gradientUnits="userSpaceOnUse" x1="488824.5" y1="-333118" x2="488824.5" y2="666236">
      <stop offset="0" style="stop-color: transparent;"/>
      <stop offset="0" style="stop-color: rgb(244, 101, 99);"/>
      <stop offset="0.1" style="stop-color: rgb(244, 101, 99);"/>
      <stop offset="0.2" style="stop-color: rgb(244, 101, 99);"/>
      <stop offset="0.3" style="stop-color: rgb(244, 101, 99);"/>
      <stop offset="0.4" style="stop-color: rgb(244, 101, 99);"/>
      <stop offset="0.5" style="stop-color: rgb(244, 101, 99);"/>
      <stop offset="0.6" style="stop-color: rgb(244, 101, 99);"/>
      <stop offset="0.7" style="stop-color: rgb(244, 101, 99);"/>
      <stop offset="0.8" style="stop-color: rgb(244, 101, 99);"/>
      <stop offset="0.9" style="stop-color: rgb(244, 101, 99);"/>
      <stop offset="1" style="stop-color: rgb(244, 101, 99);"/>
      <stop offset="1" style="stop-color: transparent;"/>
    </linearGradient>
    <linearGradient id="shading5" gradientUnits="userSpaceOnUse" x1="488824.5" y1="666236" x2="488824.5" y2="1665590">
      <stop offset="0" style="stop-color: transparent;"/>
      <stop offset="0" style="stop-color: rgb(244, 101, 99);"/>
      <stop offset="0.1" style="stop-color: rgb(244, 101, 99);"/>
      <stop offset="0.2" style="stop-color: rgb(244, 101, 99);"/>
      <stop offset="0.3" style="stop-color: rgb(244, 101, 99);"/>
      <stop offset="0.4" style="stop-color: rgb(244, 101, 99);"/>
      <stop offset="0.5" style="stop-color: rgb(244, 101, 99);"/>
      <stop offset="0.6" style="stop-color: rgb(244, 101, 99);"/>
      <stop offset="0.7" style="stop-color: rgb(244, 101, 99);"/>
      <stop offset="0.8" style="stop-color: rgb(244, 101, 99);"/>
      <stop offset="0.9" style="stop-color: rgb(244, 101, 99);"/>
      <stop offset="1" style="stop-color: rgb(244, 101, 99);"/>
      <stop offset="1" style="stop-color: transparent;"/>
    </linearGradient>
    <clipPath id="clippath7" transform="">
      <path d="M 0 0 L 756 0 L 756 1008 L 0 1008 Z" style="fill: none; clip-rule: nonzero;"/>
    </clipPath>
    <clipPath id="clippath8" transform="">
      <path d="M 258.7251 899.6606 C 239.7887 880.7241 209.3057 880.5051 190.6395 899.1714 C 168.1073 921.7035 134.146 932.8065 88.7556 932.4804 C 134.146 932.8065 168.2704 944.3987 191.1287 967.257 C 210.0651 986.1934 240.5481 986.4124 259.2143 967.7462 C 277.8805 949.08 277.6615 918.597 258.7251 899.6606 Z" style="fill: none; clip-rule: nonzero;"/>
    </clipPath>
    <clipPath id="clippath9" transform="" style="clip-path: url(#clippath8);">
      <path d="M 0 0 L 756 0 L 756 1008 L 0 1008 Z" style="fill: none; clip-rule: nonzero;"/>
    </clipPath>
    <linearGradient id="shading6" gradientUnits="userSpaceOnUse" x1="910550.2" y1="-2463278" x2="910550.2" y2="-615819.5">
      <stop offset="0" style="stop-color: transparent;"/>
      <stop offset="0" style="stop-color: rgb(104, 177, 133);"/>
      <stop offset="0.1" style="stop-color: rgb(104, 177, 133);"/>
      <stop offset="0.2" style="stop-color: rgb(104, 177, 133);"/>
      <stop offset="0.3" style="stop-color: rgb(105, 178, 134);"/>
      <stop offset="0.4" style="stop-color: rgb(110, 180, 137);"/>
      <stop offset="0.5" style="stop-color: rgb(114, 183, 140);"/>
      <stop offset="0.6" style="stop-color: rgb(119, 185, 144);"/>
      <stop offset="0.7" style="stop-color: rgb(123, 188, 147);"/>
      <stop offset="0.8" style="stop-color: rgb(128, 191, 150);"/>
      <stop offset="0.9" style="stop-color: rgb(132, 193, 154);"/>
      <stop offset="1" style="stop-color: rgb(137, 196, 157);"/>
      <stop offset="1" style="stop-color: transparent;"/>
    </linearGradient>
    <linearGradient id="shading7" gradientUnits="userSpaceOnUse" x1="910550.2" y1="-615819.5" x2="910550.2" y2="1231639">
      <stop offset="0" style="stop-color: transparent;"/>
      <stop offset="0" style="stop-color: rgb(137, 196, 157);"/>
      <stop offset="0.1" style="stop-color: rgb(132, 193, 154);"/>
      <stop offset="0.2" style="stop-color: rgb(128, 191, 150);"/>
      <stop offset="0.3" style="stop-color: rgb(123, 188, 147);"/>
      <stop offset="0.4" style="stop-color: rgb(119, 185, 144);"/>
      <stop offset="0.5" style="stop-color: rgb(114, 183, 140);"/>
      <stop offset="0.6" style="stop-color: rgb(110, 180, 137);"/>
      <stop offset="0.7" style="stop-color: rgb(105, 178, 134);"/>
      <stop offset="0.8" style="stop-color: rgb(104, 177, 133);"/>
      <stop offset="0.9" style="stop-color: rgb(104, 177, 133);"/>
      <stop offset="1" style="stop-color: rgb(104, 177, 133);"/>
      <stop offset="1" style="stop-color: transparent;"/>
    </linearGradient>
    <linearGradient id="shading8" gradientUnits="userSpaceOnUse" x1="910550.2" y1="1231639" x2="910550.2" y2="3079098">
      <stop offset="0" style="stop-color: transparent;"/>
      <stop offset="0" style="stop-color: rgb(104, 177, 133);"/>
      <stop offset="0.1" style="stop-color: rgb(104, 177, 133);"/>
      <stop offset="0.2" style="stop-color: rgb(104, 177, 133);"/>
      <stop offset="0.3" style="stop-color: rgb(105, 178, 134);"/>
      <stop offset="0.4" style="stop-color: rgb(110, 180, 137);"/>
      <stop offset="0.5" style="stop-color: rgb(114, 183, 140);"/>
      <stop offset="0.6" style="stop-color: rgb(119, 185, 144);"/>
      <stop offset="0.7" style="stop-color: rgb(123, 188, 147);"/>
      <stop offset="0.8" style="stop-color: rgb(128, 191, 150);"/>
      <stop offset="0.9" style="stop-color: rgb(132, 193, 154);"/>
      <stop offset="1" style="stop-color: rgb(137, 196, 157);"/>
      <stop offset="1" style="stop-color: transparent;"/>
    </linearGradient>
    <clipPath id="clippath10" transform="">
      <path d="M 0 0 L 756 0 L 756 1008 L 0 1008 Z" style="fill: none; clip-rule: nonzero;"/>
    </clipPath>
    <clipPath id="clippath11" transform="">
      <path d="M 263.1263 913.6397 C 251.6279 902.1413 233.1183 902.0083 221.7839 913.3426 C 208.1021 927.0244 187.4804 933.7663 159.9188 933.5683 C 187.4804 933.7663 208.2011 940.8052 222.0809 954.6851 C 233.5794 966.1835 252.089 966.3165 263.4234 954.9821 C 274.7577 943.6477 274.6247 925.1381 263.1263 913.6397 Z" style="fill: none; clip-rule: nonzero;"/>
    </clipPath>
    <clipPath id="clippath12" transform="" style="clip-path: url(#clippath11);">
      <path d="M 0 0 L 756 0 L 756 1008 L 0 1008 Z" style="fill: none; clip-rule: nonzero;"/>
    </clipPath>
    <linearGradient id="shading9" gradientUnits="userSpaceOnUse" x1="552897" y1="-1495732" x2="552897" y2="-373933">
      <stop offset="0" style="stop-color: transparent;"/>
      <stop offset="0" style="stop-color: rgb(118, 141, 198);"/>
      <stop offset="0.1" style="stop-color: rgb(118, 141, 198);"/>
      <stop offset="0.2" style="stop-color: rgb(118, 141, 198);"/>
      <stop offset="0.3" style="stop-color: rgb(118, 141, 198);"/>
      <stop offset="0.4" style="stop-color: rgb(118, 141, 198);"/>
      <stop offset="0.5" style="stop-color: rgb(118, 141, 198);"/>
      <stop offset="0.6" style="stop-color: rgb(118, 141, 198);"/>
      <stop offset="0.7" style="stop-color: rgb(118, 141, 198);"/>
      <stop offset="0.8" style="stop-color: rgb(118, 141, 198);"/>
      <stop offset="0.9" style="stop-color: rgb(118, 141, 198);"/>
      <stop offset="1" style="stop-color: rgb(118, 141, 198);"/>
      <stop offset="1" style="stop-color: transparent;"/>
    </linearGradient>
    <linearGradient id="shading10" gradientUnits="userSpaceOnUse" x1="552897" y1="-373933" x2="552897" y2="747866">
      <stop offset="0" style="stop-color: transparent;"/>
      <stop offset="0" style="stop-color: rgb(118, 141, 198);"/>
      <stop offset="0.1" style="stop-color: rgb(118, 141, 198);"/>
      <stop offset="0.2" style="stop-color: rgb(118, 141, 198);"/>
      <stop offset="0.3" style="stop-color: rgb(118, 141, 198);"/>
      <stop offset="0.4" style="stop-color: rgb(118, 141, 198);"/>
      <stop offset="0.5" style="stop-color: rgb(118, 141, 198);"/>
      <stop offset="0.6" style="stop-color: rgb(118, 141, 198);"/>
      <stop offset="0.7" style="stop-color: rgb(118, 141, 198);"/>
      <stop offset="0.8" style="stop-color: rgb(118, 141, 198);"/>
      <stop offset="0.9" style="stop-color: rgb(118, 141, 198);"/>
      <stop offset="1" style="stop-color: rgb(118, 141, 198);"/>
      <stop offset="1" style="stop-color: transparent;"/>
    </linearGradient>
    <linearGradient id="shading11" gradientUnits="userSpaceOnUse" x1="552897" y1="747866" x2="552897" y2="1869665">
      <stop offset="0" style="stop-color: transparent;"/>
      <stop offset="0" style="stop-color: rgb(118, 141, 198);"/>
      <stop offset="0.1" style="stop-color: rgb(118, 141, 198);"/>
      <stop offset="0.2" style="stop-color: rgb(118, 141, 198);"/>
      <stop offset="0.3" style="stop-color: rgb(118, 141, 198);"/>
      <stop offset="0.4" style="stop-color: rgb(118, 141, 198);"/>
      <stop offset="0.5" style="stop-color: rgb(118, 141, 198);"/>
      <stop offset="0.6" style="stop-color: rgb(118, 141, 198);"/>
      <stop offset="0.7" style="stop-color: rgb(118, 141, 198);"/>
      <stop offset="0.8" style="stop-color: rgb(118, 141, 198);"/>
      <stop offset="0.9" style="stop-color: rgb(118, 141, 198);"/>
      <stop offset="1" style="stop-color: rgb(118, 141, 198);"/>
      <stop offset="1" style="stop-color: transparent;"/>
    </linearGradient>
    <clipPath id="clippath13" transform="">
      <path d="M 0 0 L 756 0 L 756 1008 L 0 1008 Z" style="fill: none; clip-rule: nonzero;"/>
    </clipPath>
    <clipPath id="clippath14" transform="">
      <path d="M 82.39089 936.4277 L 89.35069 936.4277 L 91.50134 943.3875 L 93.65199 936.4277 L 100.6118 936.4277 L 94.98117 932.1264 L 97.13192 925.1666 L 91.50134 929.468 L 85.87076 925.1666 L 88.02151 932.1264 Z" style="fill: none; clip-rule: nonzero;"/>
    </clipPath>
    <clipPath id="clippath15" transform="" style="clip-path: url(#clippath14);">
      <path d="M 0 0 L 756 0 L 756 1008 L 0 1008 Z" style="fill: none; clip-rule: nonzero;"/>
    </clipPath>
    <linearGradient id="shading12" gradientUnits="userSpaceOnUse" x1="0.2530687" y1="231405.5" x2="231405.8" y2="0">
      <stop offset="0" style="stop-color: transparent;"/>
      <stop offset="0" style="stop-color: rgb(242, 242, 242);"/>
      <stop offset="0.1" style="stop-color: rgb(245, 245, 195);"/>
      <stop offset="0.2" style="stop-color: rgb(247, 247, 147);"/>
      <stop offset="0.3" style="stop-color: rgb(250, 250, 100);"/>
      <stop offset="0.4" style="stop-color: rgb(252, 252, 52);"/>
      <stop offset="0.5" style="stop-color: rgb(255, 255, 5);"/>
      <stop offset="0.6" style="stop-color: rgb(255, 255, 0);"/>
      <stop offset="0.7" style="stop-color: rgb(255, 255, 0);"/>
      <stop offset="0.8" style="stop-color: rgb(255, 255, 0);"/>
      <stop offset="0.9" style="stop-color: rgb(255, 255, 0);"/>
      <stop offset="1" style="stop-color: rgb(255, 255, 0);"/>
      <stop offset="1" style="stop-color: transparent;"/>
    </linearGradient>
    <linearGradient id="shading13" gradientUnits="userSpaceOnUse" x1="231405.8" y1="0" x2="462811.2" y2="-231405.5">
      <stop offset="0" style="stop-color: transparent;"/>
      <stop offset="0" style="stop-color: rgb(255, 255, 0);"/>
      <stop offset="0.1" style="stop-color: rgb(255, 255, 0);"/>
      <stop offset="0.2" style="stop-color: rgb(255, 255, 0);"/>
      <stop offset="0.3" style="stop-color: rgb(255, 255, 0);"/>
      <stop offset="0.4" style="stop-color: rgb(255, 255, 0);"/>
      <stop offset="0.5" style="stop-color: rgb(255, 255, 5);"/>
      <stop offset="0.6" style="stop-color: rgb(252, 252, 52);"/>
      <stop offset="0.7" style="stop-color: rgb(250, 250, 100);"/>
      <stop offset="0.8" style="stop-color: rgb(247, 247, 147);"/>
      <stop offset="0.9" style="stop-color: rgb(245, 245, 195);"/>
      <stop offset="1" style="stop-color: rgb(242, 242, 242);"/>
      <stop offset="1" style="stop-color: transparent;"/>
    </linearGradient>
    <clipPath id="clippath16" transform="">
      <path d="M 0 0 L 756 0 L 756 1008 L 0 1008 Z" style="fill: none; clip-rule: nonzero;"/>
    </clipPath>
    <clipPath id="clippath17" transform="">
      <path d="M 139.4442 970.1658 L 146.404 970.1658 L 148.5546 977.1256 L 150.7053 970.1658 L 157.6651 970.1658 L 152.0345 965.8645 L 154.1852 958.9047 L 148.5546 963.2061 L 142.9241 958.9047 L 145.0748 965.8645 Z" style="fill: none; clip-rule: nonzero;"/>
    </clipPath>
    <clipPath id="clippath18" transform="" style="clip-path: url(#clippath17);">
      <path d="M 0 0 L 756 0 L 756 1008 L 0 1008 Z" style="fill: none; clip-rule: nonzero;"/>
    </clipPath>
    <linearGradient id="shading14" gradientUnits="userSpaceOnUse" x1="0.2530687" y1="231405.5" x2="231405.8" y2="0">
      <stop offset="0" style="stop-color: transparent;"/>
      <stop offset="0" style="stop-color: rgb(242, 242, 242);"/>
      <stop offset="0.1" style="stop-color: rgb(245, 245, 195);"/>
      <stop offset="0.2" style="stop-color: rgb(247, 247, 147);"/>
      <stop offset="0.3" style="stop-color: rgb(250, 250, 100);"/>
      <stop offset="0.4" style="stop-color: rgb(252, 252, 52);"/>
      <stop offset="0.5" style="stop-color: rgb(255, 255, 5);"/>
      <stop offset="0.6" style="stop-color: rgb(255, 255, 0);"/>
      <stop offset="0.7" style="stop-color: rgb(255, 255, 0);"/>
      <stop offset="0.8" style="stop-color: rgb(255, 255, 0);"/>
      <stop offset="0.9" style="stop-color: rgb(255, 255, 0);"/>
      <stop offset="1" style="stop-color: rgb(255, 255, 0);"/>
      <stop offset="1" style="stop-color: transparent;"/>
    </linearGradient>
    <linearGradient id="shading15" gradientUnits="userSpaceOnUse" x1="231405.8" y1="0" x2="462811.2" y2="-231405.5">
      <stop offset="0" style="stop-color: transparent;"/>
      <stop offset="0" style="stop-color: rgb(255, 255, 0);"/>
      <stop offset="0.1" style="stop-color: rgb(255, 255, 0);"/>
      <stop offset="0.2" style="stop-color: rgb(255, 255, 0);"/>
      <stop offset="0.3" style="stop-color: rgb(255, 255, 0);"/>
      <stop offset="0.4" style="stop-color: rgb(255, 255, 0);"/>
      <stop offset="0.5" style="stop-color: rgb(255, 255, 5);"/>
      <stop offset="0.6" style="stop-color: rgb(252, 252, 52);"/>
      <stop offset="0.7" style="stop-color: rgb(250, 250, 100);"/>
      <stop offset="0.8" style="stop-color: rgb(247, 247, 147);"/>
      <stop offset="0.9" style="stop-color: rgb(245, 245, 195);"/>
      <stop offset="1" style="stop-color: rgb(242, 242, 242);"/>
      <stop offset="1" style="stop-color: transparent;"/>
    </linearGradient>
    <clipPath id="clippath19" transform="">
      <path d="M 0 0 L 756 0 L 756 1008 L 0 1008 Z" style="fill: none; clip-rule: nonzero;"/>
    </clipPath>
    <clipPath id="clippath20" transform="">
      <path d="M 152.265 937.1698 L 159.2248 937.1698 L 161.3754 944.1296 L 163.5261 937.1698 L 170.4859 937.1698 L 164.8553 932.8685 L 167.006 925.9087 L 161.3754 930.2101 L 155.7448 925.9087 L 157.8956 932.8685 Z" style="fill: none; clip-rule: nonzero;"/>
    </clipPath>
    <clipPath id="clippath21" transform="" style="clip-path: url(#clippath20);">
      <path d="M 0 0 L 756 0 L 756 1008 L 0 1008 Z" style="fill: none; clip-rule: nonzero;"/>
    </clipPath>
    <linearGradient id="shading16" gradientUnits="userSpaceOnUse" x1="0.2530687" y1="231405.5" x2="231405.8" y2="0">
      <stop offset="0" style="stop-color: transparent;"/>
      <stop offset="0" style="stop-color: rgb(242, 242, 242);"/>
      <stop offset="0.1" style="stop-color: rgb(245, 245, 195);"/>
      <stop offset="0.2" style="stop-color: rgb(247, 247, 147);"/>
      <stop offset="0.3" style="stop-color: rgb(250, 250, 100);"/>
      <stop offset="0.4" style="stop-color: rgb(252, 252, 52);"/>
      <stop offset="0.5" style="stop-color: rgb(255, 255, 5);"/>
      <stop offset="0.6" style="stop-color: rgb(255, 255, 0);"/>
      <stop offset="0.7" style="stop-color: rgb(255, 255, 0);"/>
      <stop offset="0.8" style="stop-color: rgb(255, 255, 0);"/>
      <stop offset="0.9" style="stop-color: rgb(255, 255, 0);"/>
      <stop offset="1" style="stop-color: rgb(255, 255, 0);"/>
      <stop offset="1" style="stop-color: transparent;"/>
    </linearGradient>
    <linearGradient id="shading17" gradientUnits="userSpaceOnUse" x1="231405.8" y1="0" x2="462811.2" y2="-231405.5">
      <stop offset="0" style="stop-color: transparent;"/>
      <stop offset="0" style="stop-color: rgb(255, 255, 0);"/>
      <stop offset="0.1" style="stop-color: rgb(255, 255, 0);"/>
      <stop offset="0.2" style="stop-color: rgb(255, 255, 0);"/>
      <stop offset="0.3" style="stop-color: rgb(255, 255, 0);"/>
      <stop offset="0.4" style="stop-color: rgb(255, 255, 0);"/>
      <stop offset="0.5" style="stop-color: rgb(255, 255, 5);"/>
      <stop offset="0.6" style="stop-color: rgb(252, 252, 52);"/>
      <stop offset="0.7" style="stop-color: rgb(250, 250, 100);"/>
      <stop offset="0.8" style="stop-color: rgb(247, 247, 147);"/>
      <stop offset="0.9" style="stop-color: rgb(245, 245, 195);"/>
      <stop offset="1" style="stop-color: rgb(242, 242, 242);"/>
      <stop offset="1" style="stop-color: transparent;"/>
    </linearGradient>
    <clipPath id="clippath22" transform="">
      <path d="M 0 0 L 756 0 L 756 1008 L 0 1008 Z" style="fill: none; clip-rule: nonzero;"/>
    </clipPath>
  </defs>
  <g transform="matrix(1, 0, 0, -1, 0, 1008)">
    <g transform="">
      <path d="M 0 0.0000225306 L 756 0.0000225306 L 756 1008.0000225306 L 0 1008.0000225306 Z" style="fill: none;"/>
    </g>
    <g style="clip-path: url(#clippath0);"/>
    <g transform="">
      <path d="M 0 0 L 756 0 L 756 1008 L 0 1008 Z" style="fill: none;"/>
    </g>
    <g style="clip-path: url(#clippath1);">
      <g transform=""/>
    </g>
    <g transform="">
      <path d="M 233.1831 895.0103 C 209.4512 871.2784 171.7161 870.5365 148.8994 893.3532 C 121.3572 920.8954 79.49153 934.1141 23.30237 933.0093 C 79.49153 934.1141 121.9096 948.99 150.5565 977.6369 C 174.2885 1001.369 212.0236 1002.111 234.8403 979.2941 C 257.657 956.4774 256.915 918.7422 233.1831 895.0103 Z" style="fill: none;"/>
    </g>
    <g style="clip-path: url(#clippath2);">
      <g transform="">
        <path d="M 0 0 L 756 0 L 756 1008 L 0 1008 Z" style="fill: none;"/>
      </g>
    </g>
    <g style="clip-path: url(#clippath3);">
      <g transform="matrix(-0.0000556777 0.0000556777 0.0000556777 0.0000556777 190.2127 852.0399)">
        <rect x="-12732451.232719742" y="-9359695.174190026" width="15841171.600119976" height="15841171.600119978" style="fill: url(#shading0);"/>
      </g>
    </g>
    <g style="clip-path: url(#clippath3);">
      <g transform="matrix(-0.0000556777 0.0000556777 0.0000556777 0.0000556777 190.2127 852.0399)">
        <rect x="-12732451.232719742" y="-9359695.174190026" width="15841171.600119976" height="15841171.600119978" style="fill: url(#shading1);"/>
      </g>
    </g>
    <g style="clip-path: url(#clippath3);">
      <g transform="matrix(-0.0000556777 0.0000556777 0.0000556777 0.0000556777 190.2127 852.0399)">
        <rect x="-12732451.232719742" y="-9359695.174190026" width="15841171.600119976" height="15841171.600119978" style="fill: url(#shading2);"/>
      </g>
    </g>
    <g transform="">
      <path d="M 0 0 L 756 0 L 756 1008 L 0 1008 Z" style="fill: none;"/>
    </g>
    <g style="clip-path: url(#clippath4);">
      <g transform="matrix(-0.0000556777 0.0000556777 0.0000556777 0.0000556777 190.2127 852.0399)">
        <path d="M 0 771771 C 0 345533.6 332208.3 0 742008 0 C 1236680 0 1731352 -257257 2226024 -771771 C 1731352 -257257 1484016 257257 1484016 771771 C 1484016 1198008 1151808 1543542 742008 1543542 C 332208.3 1543542 0 1198008 0 771771 Z" style="fill: none; stroke: rgb(59, 56, 56); stroke-opacity: 1; stroke-miterlimit: 8; stroke-width: 12700px; stroke-dashoffset: 0px;"/>
      </g>
    </g>
    <g transform="">
      <path d="M 237.1014 948.1211 C 226.8581 937.8777 210.4306 937.6974 200.4098 947.7183 C 188.3135 959.8145 170.0348 965.7284 145.5737 965.4599 C 170.0348 965.7284 188.4478 972.0451 200.8126 984.4099 C 211.0559 994.6533 227.4834 994.8336 237.5042 984.8128 C 247.5251 974.7919 247.3448 958.3645 237.1014 948.1211 Z" style="fill: none;"/>
    </g>
    <g style="clip-path: url(#clippath5);">
      <g transform="">
        <path d="M 0 0 L 756 0 L 756 1008 L 0 1008 Z" style="fill: none;"/>
      </g>
    </g>
    <g style="clip-path: url(#clippath6);">
      <g transform="matrix(-0.0000556777 0.0000556777 0.0000556777 0.0000556777 218.5542 929.5739)">
        <rect x="-13174212.476449277" y="-10310484.269285548" width="15841171.600119976" height="15841171.600119978" style="fill: url(#shading3);"/>
      </g>
    </g>
    <g style="clip-path: url(#clippath6);">
      <g transform="matrix(-0.0000556777 0.0000556777 0.0000556777 0.0000556777 218.5542 929.5739)">
        <rect x="-13174212.476449277" y="-10310484.269285548" width="15841171.600119976" height="15841171.600119978" style="fill: url(#shading4);"/>
      </g>
    </g>
    <g style="clip-path: url(#clippath6);">
      <g transform="matrix(-0.0000556777 0.0000556777 0.0000556777 0.0000556777 218.5542 929.5739)">
        <rect x="-13174212.476449277" y="-10310484.269285548" width="15841171.600119976" height="15841171.600119978" style="fill: url(#shading5);"/>
      </g>
    </g>
    <g transform="">
      <path d="M 0 0 L 756 0 L 756 1008 L 0 1008 Z" style="fill: none;"/>
    </g>
    <g style="clip-path: url(#clippath7);">
      <g transform="matrix(-0.0000556777 0.0000556777 0.0000556777 0.0000556777 218.5542 929.5739)">
        <path d="M 0 333118 C 0 149142 145902.8 0 325883 0 C 543138.3 0 760393.6 -111039.3 977649 -333118 C 760393.6 -111039.3 651766 111039.3 651766 333118 C 651766 517094 505863.2 666236 325883 666236 C 145902.8 666236 0 517094 0 333118 Z" style="fill: none; stroke: rgb(59, 56, 56); stroke-opacity: 1; stroke-miterlimit: 8; stroke-width: 12700px; stroke-dashoffset: 0px;"/>
      </g>
    </g>
    <g transform="">
      <path d="M 258.7251 899.6606 C 239.7887 880.7241 209.3057 880.5051 190.6395 899.1714 C 168.1073 921.7035 134.146 932.8065 88.7556 932.4804 C 134.146 932.8065 168.2704 944.3987 191.1287 967.257 C 210.0651 986.1934 240.5481 986.4124 259.2143 967.7462 C 277.8805 949.08 277.6615 918.597 258.7251 899.6606 Z" style="fill: none;"/>
    </g>
    <g style="clip-path: url(#clippath8);">
      <g transform="">
        <path d="M 0 0 L 756 0 L 756 1008 L 0 1008 Z" style="fill: none;"/>
      </g>
    </g>
    <g style="clip-path: url(#clippath9);">
      <g transform="matrix(-0.0000556777 0.0000556777 0.0000556777 0.0000556777 224.4377 865.3731)">
        <rect x="-12544837.520228028" y="-9786779.985523827" width="15841171.600119978" height="15841171.600119978" style="fill: url(#shading6);"/>
      </g>
    </g>
    <g style="clip-path: url(#clippath9);">
      <g transform="matrix(-0.0000556777 0.0000556777 0.0000556777 0.0000556777 224.4377 865.3731)">
        <rect x="-12544837.520228028" y="-9786779.985523827" width="15841171.600119978" height="15841171.600119978" style="fill: url(#shading7);"/>
      </g>
    </g>
    <g style="clip-path: url(#clippath9);">
      <g transform="matrix(-0.0000556777 0.0000556777 0.0000556777 0.0000556777 224.4377 865.3731)">
        <rect x="-12544837.520228028" y="-9786779.985523827" width="15841171.600119978" height="15841171.600119978" style="fill: url(#shading8);"/>
      </g>
    </g>
    <g transform="">
      <path d="M 0 0 L 756 0 L 756 1008 L 0 1008 Z" style="fill: none;"/>
    </g>
    <g style="clip-path: url(#clippath10);">
      <g transform="matrix(-0.0000556777 0.0000556777 0.0000556777 0.0000556777 224.4377 865.3731)">
        <path d="M 0 615819.5 C 0 275711.8 271778.1 0 607033.5 0 C 1011722 0 1416411 -205273.2 1821100 -615819.5 C 1416411 -205273.2 1214067 205273.2 1214067 615819.5 C 1214067 955927.2 942288.8 1231639 607033.5 1231639 C 271778.1 1231639 0 955927.2 0 615819.5 Z" style="fill: none; stroke: rgb(59, 56, 56); stroke-opacity: 1; stroke-miterlimit: 8; stroke-width: 12700px; stroke-dashoffset: 0px;"/>
      </g>
    </g>
    <g transform="">
      <path d="M 263.1263 913.6397 C 251.6279 902.1413 233.1183 902.0083 221.7839 913.3426 C 208.1021 927.0244 187.4804 933.7663 159.9188 933.5683 C 187.4804 933.7663 208.2011 940.8052 222.0809 954.6851 C 233.5794 966.1835 252.089 966.3165 263.4234 954.9821 C 274.7577 943.6477 274.6247 925.1381 263.1263 913.6397 Z" style="fill: none;"/>
    </g>
    <g style="clip-path: url(#clippath11);">
      <g transform="">
        <path d="M 0 0 L 756 0 L 756 1008 L 0 1008 Z" style="fill: none;"/>
      </g>
    </g>
    <g style="clip-path: url(#clippath12);">
      <g transform="matrix(-0.0000556777 0.0000556777 0.0000556777 0.0000556777 242.3066 892.8199)">
        <rect x="-12630849.514257953" y="-10193726.572757136" width="15841171.600119978" height="15841171.600119978" style="fill: url(#shading9);"/>
      </g>
    </g>
    <g style="clip-path: url(#clippath12);">
      <g transform="matrix(-0.0000556777 0.0000556777 0.0000556777 0.0000556777 242.3066 892.8199)">
        <rect x="-12630849.514257953" y="-10193726.572757136" width="15841171.600119978" height="15841171.600119978" style="fill: url(#shading10);"/>
      </g>
    </g>
    <g style="clip-path: url(#clippath12);">
      <g transform="matrix(-0.0000556777 0.0000556777 0.0000556777 0.0000556777 242.3066 892.8199)">
        <rect x="-12630849.514257953" y="-10193726.572757136" width="15841171.600119978" height="15841171.600119978" style="fill: url(#shading11);"/>
      </g>
    </g>
    <g transform="">
      <path d="M 0 0 L 756 0 L 756 1008 L 0 1008 Z" style="fill: none;"/>
    </g>
    <g style="clip-path: url(#clippath13);">
      <g transform="matrix(-0.0000556777 0.0000556777 0.0000556777 0.0000556777 242.3066 892.8199)">
        <path d="M 0 373933 C 0 167415.5 165026.9 0 368598 0 C 614330 0 860062 -124644.3 1105794 -373933 C 860062 -124644.3 737196 124644.3 737196 373933 C 737196 580450.5 572169 747866 368598 747866 C 165026.9 747866 0 580450.5 0 373933 Z" style="fill: none; stroke: rgb(59, 56, 56); stroke-opacity: 1; stroke-miterlimit: 8; stroke-width: 12700px; stroke-dashoffset: 0px;"/>
      </g>
    </g>
    <g style="clip-path: url(#clippath13);">
      <g transform="">
        <path d="M 220.817 852.04 L 294.759 852.04 L 294.759 1008 L 220.817 1008 Z" style="fill: rgb(255, 255, 255); fill-opacity: 1;"/>
        <path d="M 19.67417 933.2149 C 19.67417 936.3676 22.2299 938.9233 25.38256 938.9233 C 28.53521 938.9233 31.09094 936.3676 31.09094 933.2149 C 31.09094 930.0623 28.53521 927.5065 25.38256 927.5065 C 22.2299 927.5065 19.67417 930.0623 19.67417 933.2149 Z" style="fill: rgb(255, 255, 255); fill-opacity: 1;"/>
      </g>
      <g transform="matrix(0.0000787402 0 0 -0.0000787402 19.67417 938.9233)">
        <path d="M 0 72496.5 C 0 32457.79 32457.79 0 72496.5 0 C 112535.2 0 144993 32457.79 144993 72496.5 C 144993 112535.2 112535.2 144993 72496.5 144993 C 32457.79 144993 0 112535.2 0 72496.5 Z" style="fill: none; stroke: rgb(0, 0, 0); stroke-opacity: 1; stroke-miterlimit: 8; stroke-width: 12700px; stroke-dashoffset: 0px;"/>
      </g>
    </g>
    <g transform="">
      <path d="M 82.39089 936.4277 L 89.35069 936.4277 L 91.50134 943.3875 L 93.65199 936.4277 L 100.6118 936.4277 L 94.98117 932.1264 L 97.13192 925.1666 L 91.50134 929.468 L 85.87076 925.1666 L 88.02151 932.1264 Z" style="fill: none;"/>
    </g>
    <g style="clip-path: url(#clippath14);">
      <g transform="">
        <path d="M 0 0 L 756 0 L 756 1008 L 0 1008 Z" style="fill: none;"/>
      </g>
    </g>
    <g style="clip-path: url(#clippath15);">
      <g transform="matrix(0.0000787402 0 0 -0.0000787402 82.39087 943.3875)">
        <rect x="-1046364.0155163516" y="-820578.7237414792" width="9601199.69276161" height="12801599.590348812" style="fill: url(#shading12);"/>
      </g>
    </g>
    <g style="clip-path: url(#clippath15);">
      <g transform="matrix(0.0000787402 0 0 -0.0000787402 82.39087 943.3875)">
        <rect x="-1046364.0155163516" y="-820578.7237414792" width="9601199.69276161" height="12801599.590348812" style="fill: url(#shading13);"/>
      </g>
    </g>
    <g transform="">
      <path d="M 0 0 L 756 0 L 756 1008 L 0 1008 Z" style="fill: none;"/>
    </g>
    <g style="clip-path: url(#clippath16);">
      <g transform="matrix(0.0000787402 0 0 -0.0000787402 82.39087 943.3875)">
        <path d="M 0.2530687 88389.05 L 88389.81 88389.55 L 115703 0 L 143016.2 88389.55 L 231405.8 88389.05 L 159896.9 143016.2 L 187211.4 231405.5 L 115703 176777.3 L 44194.65 231405.5 L 71509.11 143016.2 Z" style="fill: none; stroke: rgb(0, 0, 0); stroke-opacity: 1; stroke-miterlimit: 8; stroke-width: 12700px; stroke-dashoffset: 0px;"/>
      </g>
    </g>
    <g transform="">
      <path d="M 139.4442 970.1658 L 146.404 970.1658 L 148.5546 977.1256 L 150.7053 970.1658 L 157.6651 970.1658 L 152.0345 965.8645 L 154.1852 958.9047 L 148.5546 963.2061 L 142.9241 958.9047 L 145.0748 965.8645 Z" style="fill: none;"/>
    </g>
    <g style="clip-path: url(#clippath17);">
      <g transform="">
        <path d="M 0 0 L 756 0 L 756 1008 L 0 1008 Z" style="fill: none;"/>
      </g>
    </g>
    <g style="clip-path: url(#clippath18);">
      <g transform="matrix(0.0000787402 0 0 -0.0000787402 139.4442 977.1256)">
        <rect x="-1770941.2833298787" y="-392104.8674526438" width="9601199.69276161" height="12801599.590348812" style="fill: url(#shading14);"/>
      </g>
    </g>
    <g style="clip-path: url(#clippath18);">
      <g transform="matrix(0.0000787402 0 0 -0.0000787402 139.4442 977.1256)">
        <rect x="-1770941.2833298787" y="-392104.8674526438" width="9601199.69276161" height="12801599.590348812" style="fill: url(#shading15);"/>
      </g>
    </g>
    <g transform="">
      <path d="M 0 0 L 756 0 L 756 1008 L 0 1008 Z" style="fill: none;"/>
    </g>
    <g style="clip-path: url(#clippath19);">
      <g transform="matrix(0.0000787402 0 0 -0.0000787402 139.4442 977.1256)">
        <path d="M 0.2530687 88389.05 L 88389.81 88389.55 L 115703 0 L 143016.2 88389.55 L 231405.8 88389.05 L 159896.9 143016.2 L 187211.4 231405.5 L 115703 176777.3 L 44194.65 231405.5 L 71509.11 143016.2 Z" style="fill: none; stroke: rgb(0, 0, 0); stroke-opacity: 1; stroke-miterlimit: 8; stroke-width: 12700px; stroke-dashoffset: 0px;"/>
      </g>
    </g>
    <g transform="">
      <path d="M 152.265 937.1698 L 159.2248 937.1698 L 161.3754 944.1296 L 163.5261 937.1698 L 170.4859 937.1698 L 164.8553 932.8685 L 167.006 925.9087 L 161.3754 930.2101 L 155.7448 925.9087 L 157.8956 932.8685 Z" style="fill: none;"/>
    </g>
    <g style="clip-path: url(#clippath20);">
      <g transform="">
        <path d="M 0 0 L 756 0 L 756 1008 L 0 1008 Z" style="fill: none;"/>
      </g>
    </g>
    <g style="clip-path: url(#clippath21);">
      <g transform="matrix(0.0000787402 0 0 -0.0000787402 152.265 944.1296)">
        <rect x="-1933765.4381195055" y="-811154.0540430695" width="9601199.69276161" height="12801599.590348812" style="fill: url(#shading16);"/>
      </g>
    </g>
    <g style="clip-path: url(#clippath21);">
      <g transform="matrix(0.0000787402 0 0 -0.0000787402 152.265 944.1296)">
        <rect x="-1933765.4381195055" y="-811154.0540430695" width="9601199.69276161" height="12801599.590348812" style="fill: url(#shading17);"/>
      </g>
    </g>
    <g transform="">
      <path d="M 0 0 L 756 0 L 756 1008 L 0 1008 Z" style="fill: none;"/>
    </g>
    <g style="clip-path: url(#clippath22);">
      <g transform="matrix(0.0000787402 0 0 -0.0000787402 152.265 944.1296)">
        <path d="M 0.2530687 88389.05 L 88389.81 88389.55 L 115703 0 L 143016.2 88389.55 L 231405.8 88389.05 L 159896.9 143016.2 L 187211.4 231405.5 L 115703 176777.3 L 44194.65 231405.5 L 71509.11 143016.2 Z" style="fill: none; stroke: rgb(0, 0, 0); stroke-opacity: 1; stroke-miterlimit: 8; stroke-width: 12700px; stroke-dashoffset: 0px;"/>
      </g>
    </g>
  </g>
</svg>