<?xml version="1.0" encoding="utf-8"?>
<svg xmlns="http://www.w3.org/2000/svg" xmlns:xlink="http://www.w3.org/1999/xlink" width="800" height="300" viewBox="0 0 3200 1200">
<defs>
  <clipPath id="clip2500">
    <rect x="0" y="0" width="3200" height="1200"/>
  </clipPath>
</defs>
<path clip-path="url(#clip2500)" d="
M0 1200 L3200 1200 L3200 0 L0 0  Z
  " fill="#ffffff" fill-rule="evenodd" fill-opacity="1"/>
<defs>
  <clipPath id="clip2501">
    <rect x="640" y="0" width="2241" height="1200"/>
  </clipPath>
</defs>
<path clip-path="url(#clip2500)" d="
M206.103 1015.1 L1552.76 1015.1 L1552.76 47.2441 L206.103 47.2441  Z
  " fill="#ffffff" fill-rule="evenodd" fill-opacity="1"/>
<defs>
  <clipPath id="clip2502">
    <rect x="206" y="47" width="1348" height="969"/>
  </clipPath>
</defs>
<polyline clip-path="url(#clip2502)" style="stroke:#000000; stroke-width:2; stroke-opacity:0.1; fill:none" points="
  206.103,1015.1 206.103,47.2441 
  "/>
<polyline clip-path="url(#clip2502)" style="stroke:#000000; stroke-width:2; stroke-opacity:0.1; fill:none" points="
  475.433,1015.1 475.433,47.2441 
  "/>
<polyline clip-path="url(#clip2502)" style="stroke:#000000; stroke-width:2; stroke-opacity:0.1; fill:none" points="
  744.764,1015.1 744.764,47.2441 
  "/>
<polyline clip-path="url(#clip2502)" style="stroke:#000000; stroke-width:2; stroke-opacity:0.1; fill:none" points="
  1014.09,1015.1 1014.09,47.2441 
  "/>
<polyline clip-path="url(#clip2502)" style="stroke:#000000; stroke-width:2; stroke-opacity:0.1; fill:none" points="
  1283.43,1015.1 1283.43,47.2441 
  "/>
<polyline clip-path="url(#clip2502)" style="stroke:#000000; stroke-width:2; stroke-opacity:0.1; fill:none" points="
  1552.76,1015.1 1552.76,47.2441 
  "/>
<polyline clip-path="url(#clip2502)" style="stroke:#000000; stroke-width:2; stroke-opacity:0.1; fill:none" points="
  206.103,987.709 1552.76,987.709 
  "/>
<polyline clip-path="url(#clip2502)" style="stroke:#000000; stroke-width:2; stroke-opacity:0.1; fill:none" points="
  206.103,824.705 1552.76,824.705 
  "/>
<polyline clip-path="url(#clip2502)" style="stroke:#000000; stroke-width:2; stroke-opacity:0.1; fill:none" points="
  206.103,661.7 1552.76,661.7 
  "/>
<polyline clip-path="url(#clip2502)" style="stroke:#000000; stroke-width:2; stroke-opacity:0.1; fill:none" points="
  206.103,498.696 1552.76,498.696 
  "/>
<polyline clip-path="url(#clip2502)" style="stroke:#000000; stroke-width:2; stroke-opacity:0.1; fill:none" points="
  206.103,335.692 1552.76,335.692 
  "/>
<polyline clip-path="url(#clip2502)" style="stroke:#000000; stroke-width:2; stroke-opacity:0.1; fill:none" points="
  206.103,172.688 1552.76,172.688 
  "/>
<polyline clip-path="url(#clip2500)" style="stroke:#000000; stroke-width:4; stroke-opacity:1; fill:none" points="
  206.103,1015.1 1552.76,1015.1 
  "/>
<polyline clip-path="url(#clip2500)" style="stroke:#000000; stroke-width:4; stroke-opacity:1; fill:none" points="
  206.103,1015.1 206.103,47.2441 
  "/>
<polyline clip-path="url(#clip2500)" style="stroke:#000000; stroke-width:4; stroke-opacity:1; fill:none" points="
  206.103,1015.1 206.103,1003.49 
  "/>
<polyline clip-path="url(#clip2500)" style="stroke:#000000; stroke-width:4; stroke-opacity:1; fill:none" points="
  475.433,1015.1 475.433,1003.49 
  "/>
<polyline clip-path="url(#clip2500)" style="stroke:#000000; stroke-width:4; stroke-opacity:1; fill:none" points="
  744.764,1015.1 744.764,1003.49 
  "/>
<polyline clip-path="url(#clip2500)" style="stroke:#000000; stroke-width:4; stroke-opacity:1; fill:none" points="
  1014.09,1015.1 1014.09,1003.49 
  "/>
<polyline clip-path="url(#clip2500)" style="stroke:#000000; stroke-width:4; stroke-opacity:1; fill:none" points="
  1283.43,1015.1 1283.43,1003.49 
  "/>
<polyline clip-path="url(#clip2500)" style="stroke:#000000; stroke-width:4; stroke-opacity:1; fill:none" points="
  1552.76,1015.1 1552.76,1003.49 
  "/>
<polyline clip-path="url(#clip2500)" style="stroke:#000000; stroke-width:4; stroke-opacity:1; fill:none" points="
  206.103,987.709 222.263,987.709 
  "/>
<polyline clip-path="url(#clip2500)" style="stroke:#000000; stroke-width:4; stroke-opacity:1; fill:none" points="
  206.103,824.705 222.263,824.705 
  "/>
<polyline clip-path="url(#clip2500)" style="stroke:#000000; stroke-width:4; stroke-opacity:1; fill:none" points="
  206.103,661.7 222.263,661.7 
  "/>
<polyline clip-path="url(#clip2500)" style="stroke:#000000; stroke-width:4; stroke-opacity:1; fill:none" points="
  206.103,498.696 222.263,498.696 
  "/>
<polyline clip-path="url(#clip2500)" style="stroke:#000000; stroke-width:4; stroke-opacity:1; fill:none" points="
  206.103,335.692 222.263,335.692 
  "/>
<polyline clip-path="url(#clip2500)" style="stroke:#000000; stroke-width:4; stroke-opacity:1; fill:none" points="
  206.103,172.688 222.263,172.688 
  "/>
<g clip-path="url(#clip2500)">
<text style="fill:#000000; fill-opacity:1; font-family:Arial,Helvetica Neue,Helvetica,sans-serif; font-size:48px; text-anchor:middle;" transform="rotate(0, 206.103, 1073.1)" x="206.103" y="1073.1">0.0</text>
</g>
<g clip-path="url(#clip2500)">
<text style="fill:#000000; fill-opacity:1; font-family:Arial,Helvetica Neue,Helvetica,sans-serif; font-size:48px; text-anchor:middle;" transform="rotate(0, 475.433, 1073.1)" x="475.433" y="1073.1">0.2</text>
</g>
<g clip-path="url(#clip2500)">
<text style="fill:#000000; fill-opacity:1; font-family:Arial,Helvetica Neue,Helvetica,sans-serif; font-size:48px; text-anchor:middle;" transform="rotate(0, 744.764, 1073.1)" x="744.764" y="1073.1">0.4</text>
</g>
<g clip-path="url(#clip2500)">
<text style="fill:#000000; fill-opacity:1; font-family:Arial,Helvetica Neue,Helvetica,sans-serif; font-size:48px; text-anchor:middle;" transform="rotate(0, 1014.09, 1073.1)" x="1014.09" y="1073.1">0.6</text>
</g>
<g clip-path="url(#clip2500)">
<text style="fill:#000000; fill-opacity:1; font-family:Arial,Helvetica Neue,Helvetica,sans-serif; font-size:48px; text-anchor:middle;" transform="rotate(0, 1283.43, 1073.1)" x="1283.43" y="1073.1">0.8</text>
</g>
<g clip-path="url(#clip2500)">
<text style="fill:#000000; fill-opacity:1; font-family:Arial,Helvetica Neue,Helvetica,sans-serif; font-size:48px; text-anchor:middle;" transform="rotate(0, 1552.76, 1073.1)" x="1552.76" y="1073.1">1.0</text>
</g>
<g clip-path="url(#clip2500)">
<text style="fill:#000000; fill-opacity:1; font-family:Arial,Helvetica Neue,Helvetica,sans-serif; font-size:48px; text-anchor:end;" transform="rotate(0, 174.103, 1005.21)" x="174.103" y="1005.21">0</text>
</g>
<g clip-path="url(#clip2500)">
<text style="fill:#000000; fill-opacity:1; font-family:Arial,Helvetica Neue,Helvetica,sans-serif; font-size:48px; text-anchor:end;" transform="rotate(0, 174.103, 842.205)" x="174.103" y="842.205">1</text>
</g>
<g clip-path="url(#clip2500)">
<text style="fill:#000000; fill-opacity:1; font-family:Arial,Helvetica Neue,Helvetica,sans-serif; font-size:48px; text-anchor:end;" transform="rotate(0, 174.103, 679.2)" x="174.103" y="679.2">2</text>
</g>
<g clip-path="url(#clip2500)">
<text style="fill:#000000; fill-opacity:1; font-family:Arial,Helvetica Neue,Helvetica,sans-serif; font-size:48px; text-anchor:end;" transform="rotate(0, 174.103, 516.196)" x="174.103" y="516.196">3</text>
</g>
<g clip-path="url(#clip2500)">
<text style="fill:#000000; fill-opacity:1; font-family:Arial,Helvetica Neue,Helvetica,sans-serif; font-size:48px; text-anchor:end;" transform="rotate(0, 174.103, 353.192)" x="174.103" y="353.192">4</text>
</g>
<g clip-path="url(#clip2500)">
<text style="fill:#000000; fill-opacity:1; font-family:Arial,Helvetica Neue,Helvetica,sans-serif; font-size:48px; text-anchor:end;" transform="rotate(0, 174.103, 190.188)" x="174.103" y="190.188">5</text>
</g>
<g clip-path="url(#clip2500)">
<text style="fill:#000000; fill-opacity:1; font-family:Arial,Helvetica Neue,Helvetica,sans-serif; font-size:66px; text-anchor:middle;" transform="rotate(0, 879.429, 1156.96)" x="879.429" y="1156.96">Variant allele frequency (VAF)</text>
</g>
<g clip-path="url(#clip2500)">
<text style="fill:#000000; fill-opacity:1; font-family:Arial,Helvetica Neue,Helvetica,sans-serif; font-size:66px; text-anchor:middle;" transform="rotate(-90, 103.778, 531.173)" x="103.778" y="531.173">Density</text>
</g>
<path clip-path="url(#clip2502)" d="
M219.569 838.001 L219.569 987.709 L233.036 987.709 L233.036 838.001 L219.569 838.001 L219.569 838.001  Z
  " fill="#64b489" fill-rule="evenodd" fill-opacity="1"/>
<polyline clip-path="url(#clip2502)" style="stroke:#c0c1c2; stroke-width:4; stroke-opacity:0.8; fill:none" points="
  219.569,838.001 219.569,987.709 233.036,987.709 233.036,838.001 219.569,838.001 
  "/>
<path clip-path="url(#clip2502)" d="
M233.036 440.755 L233.036 987.709 L246.502 987.709 L246.502 440.755 L233.036 440.755 L233.036 440.755  Z
  " fill="#64b489" fill-rule="evenodd" fill-opacity="1"/>
<polyline clip-path="url(#clip2502)" style="stroke:#c0c1c2; stroke-width:4; stroke-opacity:0.8; fill:none" points="
  233.036,440.755 233.036,987.709 246.502,987.709 246.502,440.755 233.036,440.755 
  "/>
<path clip-path="url(#clip2502)" d="
M246.502 245.096 L246.502 987.709 L259.969 987.709 L259.969 245.096 L246.502 245.096 L246.502 245.096  Z
  " fill="#64b489" fill-rule="evenodd" fill-opacity="1"/>
<polyline clip-path="url(#clip2502)" style="stroke:#c0c1c2; stroke-width:4; stroke-opacity:0.8; fill:none" points="
  246.502,245.096 246.502,987.709 259.969,987.709 259.969,245.096 246.502,245.096 
  "/>
<path clip-path="url(#clip2502)" d="
M259.969 74.6363 L259.969 987.709 L273.436 987.709 L273.436 74.6363 L259.969 74.6363 L259.969 74.6363  Z
  " fill="#64b489" fill-rule="evenodd" fill-opacity="1"/>
<polyline clip-path="url(#clip2502)" style="stroke:#c0c1c2; stroke-width:4; stroke-opacity:0.8; fill:none" points="
  259.969,74.6363 259.969,987.709 273.436,987.709 273.436,74.6363 259.969,74.6363 
  "/>
<path clip-path="url(#clip2502)" d="
M273.436 83.5298 L273.436 987.709 L286.902 987.709 L286.902 83.5298 L273.436 83.5298 L273.436 83.5298  Z
  " fill="#64b489" fill-rule="evenodd" fill-opacity="1"/>
<polyline clip-path="url(#clip2502)" style="stroke:#c0c1c2; stroke-width:4; stroke-opacity:0.8; fill:none" points="
  273.436,83.5298 273.436,987.709 286.902,987.709 286.902,83.5298 273.436,83.5298 
  "/>
<path clip-path="url(#clip2502)" d="
M286.902 285.117 L286.902 987.709 L300.369 987.709 L300.369 285.117 L286.902 285.117 L286.902 285.117  Z
  " fill="#64b489" fill-rule="evenodd" fill-opacity="1"/>
<polyline clip-path="url(#clip2502)" style="stroke:#c0c1c2; stroke-width:4; stroke-opacity:0.8; fill:none" points="
  286.902,285.117 286.902,987.709 300.369,987.709 300.369,285.117 286.902,285.117 
  "/>
<path clip-path="url(#clip2502)" d="
M300.369 394.805 L300.369 987.709 L313.835 987.709 L313.835 394.805 L300.369 394.805 L300.369 394.805  Z
  " fill="#64b489" fill-rule="evenodd" fill-opacity="1"/>
<polyline clip-path="url(#clip2502)" style="stroke:#c0c1c2; stroke-width:4; stroke-opacity:0.8; fill:none" points="
  300.369,394.805 300.369,987.709 313.835,987.709 313.835,394.805 300.369,394.805 
  "/>
<path clip-path="url(#clip2502)" d="
M313.835 500.045 L313.835 987.709 L327.302 987.709 L327.302 500.045 L313.835 500.045 L313.835 500.045  Z
  " fill="#64b489" fill-rule="evenodd" fill-opacity="1"/>
<polyline clip-path="url(#clip2502)" style="stroke:#c0c1c2; stroke-width:4; stroke-opacity:0.8; fill:none" points="
  313.835,500.045 313.835,987.709 327.302,987.709 327.302,500.045 313.835,500.045 
  "/>
<path clip-path="url(#clip2502)" d="
M327.302 586.016 L327.302 987.709 L340.768 987.709 L340.768 586.016 L327.302 586.016 L327.302 586.016  Z
  " fill="#64b489" fill-rule="evenodd" fill-opacity="1"/>
<polyline clip-path="url(#clip2502)" style="stroke:#c0c1c2; stroke-width:4; stroke-opacity:0.8; fill:none" points="
  327.302,586.016 327.302,987.709 340.768,987.709 340.768,586.016 327.302,586.016 
  "/>
<path clip-path="url(#clip2502)" d="
M340.768 593.428 L340.768 987.709 L354.235 987.709 L354.235 593.428 L340.768 593.428 L340.768 593.428  Z
  " fill="#64b489" fill-rule="evenodd" fill-opacity="1"/>
<polyline clip-path="url(#clip2502)" style="stroke:#c0c1c2; stroke-width:4; stroke-opacity:0.8; fill:none" points="
  340.768,593.428 340.768,987.709 354.235,987.709 354.235,593.428 340.768,593.428 
  "/>
<path clip-path="url(#clip2502)" d="
M354.235 618.626 L354.235 987.709 L367.701 987.709 L367.701 618.626 L354.235 618.626 L354.235 618.626  Z
  " fill="#64b489" fill-rule="evenodd" fill-opacity="1"/>
<polyline clip-path="url(#clip2502)" style="stroke:#c0c1c2; stroke-width:4; stroke-opacity:0.8; fill:none" points="
  354.235,618.626 354.235,987.709 367.701,987.709 367.701,618.626 354.235,618.626 
  "/>
<path clip-path="url(#clip2502)" d="
M367.701 657.165 L367.701 987.709 L381.168 987.709 L381.168 657.165 L367.701 657.165 L367.701 657.165  Z
  " fill="#64b489" fill-rule="evenodd" fill-opacity="1"/>
<polyline clip-path="url(#clip2502)" style="stroke:#c0c1c2; stroke-width:4; stroke-opacity:0.8; fill:none" points="
  367.701,657.165 367.701,987.709 381.168,987.709 381.168,657.165 367.701,657.165 
  "/>
<path clip-path="url(#clip2502)" d="
M381.168 666.058 L381.168 987.709 L394.634 987.709 L394.634 666.058 L381.168 666.058 L381.168 666.058  Z
  " fill="#64b489" fill-rule="evenodd" fill-opacity="1"/>
<polyline clip-path="url(#clip2502)" style="stroke:#c0c1c2; stroke-width:4; stroke-opacity:0.8; fill:none" points="
  381.168,666.058 381.168,987.709 394.634,987.709 394.634,666.058 381.168,666.058 
  "/>
<path clip-path="url(#clip2502)" d="
M394.634 600.839 L394.634 987.709 L408.101 987.709 L408.101 600.839 L394.634 600.839 L394.634 600.839  Z
  " fill="#64b489" fill-rule="evenodd" fill-opacity="1"/>
<polyline clip-path="url(#clip2502)" style="stroke:#c0c1c2; stroke-width:4; stroke-opacity:0.8; fill:none" points="
  394.634,600.839 394.634,987.709 408.101,987.709 408.101,600.839 394.634,600.839 
  "/>
<path clip-path="url(#clip2502)" d="
M408.101 566.747 L408.101 987.709 L421.567 987.709 L421.567 566.747 L408.101 566.747 L408.101 566.747  Z
  " fill="#64b489" fill-rule="evenodd" fill-opacity="1"/>
<polyline clip-path="url(#clip2502)" style="stroke:#c0c1c2; stroke-width:4; stroke-opacity:0.8; fill:none" points="
  408.101,566.747 408.101,987.709 421.567,987.709 421.567,566.747 408.101,566.747 
  "/>
<path clip-path="url(#clip2502)" d="
M421.567 551.924 L421.567 987.709 L435.034 987.709 L435.034 551.924 L421.567 551.924 L421.567 551.924  Z
  " fill="#64b489" fill-rule="evenodd" fill-opacity="1"/>
<polyline clip-path="url(#clip2502)" style="stroke:#c0c1c2; stroke-width:4; stroke-opacity:0.8; fill:none" points="
  421.567,551.924 421.567,987.709 435.034,987.709 435.034,551.924 421.567,551.924 
  "/>
<path clip-path="url(#clip2502)" d="
M435.034 577.123 L435.034 987.709 L448.5 987.709 L448.5 577.123 L435.034 577.123 L435.034 577.123  Z
  " fill="#64b489" fill-rule="evenodd" fill-opacity="1"/>
<polyline clip-path="url(#clip2502)" style="stroke:#c0c1c2; stroke-width:4; stroke-opacity:0.8; fill:none" points="
  435.034,577.123 435.034,987.709 448.5,987.709 448.5,577.123 435.034,577.123 
  "/>
<path clip-path="url(#clip2502)" d="
M448.5 606.768 L448.5 987.709 L461.967 987.709 L461.967 606.768 L448.5 606.768 L448.5 606.768  Z
  " fill="#64b489" fill-rule="evenodd" fill-opacity="1"/>
<polyline clip-path="url(#clip2502)" style="stroke:#c0c1c2; stroke-width:4; stroke-opacity:0.8; fill:none" points="
  448.5,606.768 448.5,987.709 461.967,987.709 461.967,606.768 448.5,606.768 
  "/>
<path clip-path="url(#clip2502)" d="
M461.967 590.463 L461.967 987.709 L475.433 987.709 L475.433 590.463 L461.967 590.463 L461.967 590.463  Z
  " fill="#64b489" fill-rule="evenodd" fill-opacity="1"/>
<polyline clip-path="url(#clip2502)" style="stroke:#c0c1c2; stroke-width:4; stroke-opacity:0.8; fill:none" points="
  461.967,590.463 461.967,987.709 475.433,987.709 475.433,590.463 461.967,590.463 
  "/>
<path clip-path="url(#clip2502)" d="
M475.433 586.016 L475.433 987.709 L488.9 987.709 L488.9 586.016 L475.433 586.016 L475.433 586.016  Z
  " fill="#64b489" fill-rule="evenodd" fill-opacity="1"/>
<polyline clip-path="url(#clip2502)" style="stroke:#c0c1c2; stroke-width:4; stroke-opacity:0.8; fill:none" points="
  475.433,586.016 475.433,987.709 488.9,987.709 488.9,586.016 475.433,586.016 
  "/>
<path clip-path="url(#clip2502)" d="
M488.9 627.52 L488.9 987.709 L502.367 987.709 L502.367 627.52 L488.9 627.52 L488.9 627.52  Z
  " fill="#64b489" fill-rule="evenodd" fill-opacity="1"/>
<polyline clip-path="url(#clip2502)" style="stroke:#c0c1c2; stroke-width:4; stroke-opacity:0.8; fill:none" points="
  488.9,627.52 488.9,987.709 502.367,987.709 502.367,627.52 488.9,627.52 
  "/>
<path clip-path="url(#clip2502)" d="
M502.367 674.952 L502.367 987.709 L515.833 987.709 L515.833 674.952 L502.367 674.952 L502.367 674.952  Z
  " fill="#64b489" fill-rule="evenodd" fill-opacity="1"/>
<polyline clip-path="url(#clip2502)" style="stroke:#c0c1c2; stroke-width:4; stroke-opacity:0.8; fill:none" points="
  502.367,674.952 502.367,987.709 515.833,987.709 515.833,674.952 502.367,674.952 
  "/>
<path clip-path="url(#clip2502)" d="
M515.833 686.81 L515.833 987.709 L529.3 987.709 L529.3 686.81 L515.833 686.81 L515.833 686.81  Z
  " fill="#64b489" fill-rule="evenodd" fill-opacity="1"/>
<polyline clip-path="url(#clip2502)" style="stroke:#c0c1c2; stroke-width:4; stroke-opacity:0.8; fill:none" points="
  515.833,686.81 515.833,987.709 529.3,987.709 529.3,686.81 515.833,686.81 
  "/>
<path clip-path="url(#clip2502)" d="
M529.3 734.242 L529.3 987.709 L542.766 987.709 L542.766 734.242 L529.3 734.242 L529.3 734.242  Z
  " fill="#64b489" fill-rule="evenodd" fill-opacity="1"/>
<polyline clip-path="url(#clip2502)" style="stroke:#c0c1c2; stroke-width:4; stroke-opacity:0.8; fill:none" points="
  529.3,734.242 529.3,987.709 542.766,987.709 542.766,734.242 529.3,734.242 
  "/>
<path clip-path="url(#clip2502)" d="
M542.766 671.987 L542.766 987.709 L556.233 987.709 L556.233 671.987 L542.766 671.987 L542.766 671.987  Z
  " fill="#64b489" fill-rule="evenodd" fill-opacity="1"/>
<polyline clip-path="url(#clip2502)" style="stroke:#c0c1c2; stroke-width:4; stroke-opacity:0.8; fill:none" points="
  542.766,671.987 542.766,987.709 556.233,987.709 556.233,671.987 542.766,671.987 
  "/>
<path clip-path="url(#clip2502)" d="
M556.233 717.937 L556.233 987.709 L569.699 987.709 L569.699 717.937 L556.233 717.937 L556.233 717.937  Z
  " fill="#64b489" fill-rule="evenodd" fill-opacity="1"/>
<polyline clip-path="url(#clip2502)" style="stroke:#c0c1c2; stroke-width:4; stroke-opacity:0.8; fill:none" points="
  556.233,717.937 556.233,987.709 569.699,987.709 569.699,717.937 556.233,717.937 
  "/>
<path clip-path="url(#clip2502)" d="
M569.699 752.029 L569.699 987.709 L583.166 987.709 L583.166 752.029 L569.699 752.029 L569.699 752.029  Z
  " fill="#64b489" fill-rule="evenodd" fill-opacity="1"/>
<polyline clip-path="url(#clip2502)" style="stroke:#c0c1c2; stroke-width:4; stroke-opacity:0.8; fill:none" points="
  569.699,752.029 569.699,987.709 583.166,987.709 583.166,752.029 569.699,752.029 
  "/>
<path clip-path="url(#clip2502)" d="
M583.166 765.37 L583.166 987.709 L596.632 987.709 L596.632 765.37 L583.166 765.37 L583.166 765.37  Z
  " fill="#64b489" fill-rule="evenodd" fill-opacity="1"/>
<polyline clip-path="url(#clip2502)" style="stroke:#c0c1c2; stroke-width:4; stroke-opacity:0.8; fill:none" points="
  583.166,765.37 583.166,987.709 596.632,987.709 596.632,765.37 583.166,765.37 
  "/>
<path clip-path="url(#clip2502)" d="
M596.632 787.604 L596.632 987.709 L610.099 987.709 L610.099 787.604 L596.632 787.604 L596.632 787.604  Z
  " fill="#64b489" fill-rule="evenodd" fill-opacity="1"/>
<polyline clip-path="url(#clip2502)" style="stroke:#c0c1c2; stroke-width:4; stroke-opacity:0.8; fill:none" points="
  596.632,787.604 596.632,987.709 610.099,987.709 610.099,787.604 596.632,787.604 
  "/>
<path clip-path="url(#clip2502)" d="
M610.099 780.192 L610.099 987.709 L623.565 987.709 L623.565 780.192 L610.099 780.192 L610.099 780.192  Z
  " fill="#64b489" fill-rule="evenodd" fill-opacity="1"/>
<polyline clip-path="url(#clip2502)" style="stroke:#c0c1c2; stroke-width:4; stroke-opacity:0.8; fill:none" points="
  610.099,780.192 610.099,987.709 623.565,987.709 623.565,780.192 610.099,780.192 
  "/>
<path clip-path="url(#clip2502)" d="
M623.565 854.305 L623.565 987.709 L637.032 987.709 L637.032 854.305 L623.565 854.305 L623.565 854.305  Z
  " fill="#64b489" fill-rule="evenodd" fill-opacity="1"/>
<polyline clip-path="url(#clip2502)" style="stroke:#c0c1c2; stroke-width:4; stroke-opacity:0.8; fill:none" points="
  623.565,854.305 623.565,987.709 637.032,987.709 637.032,854.305 623.565,854.305 
  "/>
<path clip-path="url(#clip2502)" d="
M637.032 860.234 L637.032 987.709 L650.498 987.709 L650.498 860.234 L637.032 860.234 L637.032 860.234  Z
  " fill="#64b489" fill-rule="evenodd" fill-opacity="1"/>
<polyline clip-path="url(#clip2502)" style="stroke:#c0c1c2; stroke-width:4; stroke-opacity:0.8; fill:none" points="
  637.032,860.234 637.032,987.709 650.498,987.709 650.498,860.234 637.032,860.234 
  "/>
<path clip-path="url(#clip2502)" d="
M650.498 867.646 L650.498 987.709 L663.965 987.709 L663.965 867.646 L650.498 867.646 L650.498 867.646  Z
  " fill="#64b489" fill-rule="evenodd" fill-opacity="1"/>
<polyline clip-path="url(#clip2502)" style="stroke:#c0c1c2; stroke-width:4; stroke-opacity:0.8; fill:none" points="
  650.498,867.646 650.498,987.709 663.965,987.709 663.965,867.646 650.498,867.646 
  "/>
<path clip-path="url(#clip2502)" d="
M663.965 870.61 L663.965 987.709 L677.431 987.709 L677.431 870.61 L663.965 870.61 L663.965 870.61  Z
  " fill="#64b489" fill-rule="evenodd" fill-opacity="1"/>
<polyline clip-path="url(#clip2502)" style="stroke:#c0c1c2; stroke-width:4; stroke-opacity:0.8; fill:none" points="
  663.965,870.61 663.965,987.709 677.431,987.709 677.431,870.61 663.965,870.61 
  "/>
<path clip-path="url(#clip2502)" d="
M677.431 906.185 L677.431 987.709 L690.898 987.709 L690.898 906.185 L677.431 906.185 L677.431 906.185  Z
  " fill="#64b489" fill-rule="evenodd" fill-opacity="1"/>
<polyline clip-path="url(#clip2502)" style="stroke:#c0c1c2; stroke-width:4; stroke-opacity:0.8; fill:none" points="
  677.431,906.185 677.431,987.709 690.898,987.709 690.898,906.185 677.431,906.185 
  "/>
<path clip-path="url(#clip2502)" d="
M690.898 922.489 L690.898 987.709 L704.364 987.709 L704.364 922.489 L690.898 922.489 L690.898 922.489  Z
  " fill="#64b489" fill-rule="evenodd" fill-opacity="1"/>
<polyline clip-path="url(#clip2502)" style="stroke:#c0c1c2; stroke-width:4; stroke-opacity:0.8; fill:none" points="
  690.898,922.489 690.898,987.709 704.364,987.709 704.364,922.489 690.898,922.489 
  "/>
<path clip-path="url(#clip2502)" d="
M704.364 931.383 L704.364 987.709 L717.831 987.709 L717.831 931.383 L704.364 931.383 L704.364 931.383  Z
  " fill="#64b489" fill-rule="evenodd" fill-opacity="1"/>
<polyline clip-path="url(#clip2502)" style="stroke:#c0c1c2; stroke-width:4; stroke-opacity:0.8; fill:none" points="
  704.364,931.383 704.364,987.709 717.831,987.709 717.831,931.383 704.364,931.383 
  "/>
<path clip-path="url(#clip2502)" d="
M717.831 950.652 L717.831 987.709 L731.298 987.709 L731.298 950.652 L717.831 950.652 L717.831 950.652  Z
  " fill="#64b489" fill-rule="evenodd" fill-opacity="1"/>
<polyline clip-path="url(#clip2502)" style="stroke:#c0c1c2; stroke-width:4; stroke-opacity:0.8; fill:none" points="
  717.831,950.652 717.831,987.709 731.298,987.709 731.298,950.652 717.831,950.652 
  "/>
<path clip-path="url(#clip2502)" d="
M731.298 947.688 L731.298 987.709 L744.764 987.709 L744.764 947.688 L731.298 947.688 L731.298 947.688  Z
  " fill="#64b489" fill-rule="evenodd" fill-opacity="1"/>
<polyline clip-path="url(#clip2502)" style="stroke:#c0c1c2; stroke-width:4; stroke-opacity:0.8; fill:none" points="
  731.298,947.688 731.298,987.709 744.764,987.709 744.764,947.688 731.298,947.688 
  "/>
<path clip-path="url(#clip2502)" d="
M744.764 915.078 L744.764 987.709 L758.231 987.709 L758.231 915.078 L744.764 915.078 L744.764 915.078  Z
  " fill="#64b489" fill-rule="evenodd" fill-opacity="1"/>
<polyline clip-path="url(#clip2502)" style="stroke:#c0c1c2; stroke-width:4; stroke-opacity:0.8; fill:none" points="
  744.764,915.078 744.764,987.709 758.231,987.709 758.231,915.078 744.764,915.078 
  "/>
<path clip-path="url(#clip2502)" d="
M758.231 925.454 L758.231 987.709 L771.697 987.709 L771.697 925.454 L758.231 925.454 L758.231 925.454  Z
  " fill="#64b489" fill-rule="evenodd" fill-opacity="1"/>
<polyline clip-path="url(#clip2502)" style="stroke:#c0c1c2; stroke-width:4; stroke-opacity:0.8; fill:none" points="
  758.231,925.454 758.231,987.709 771.697,987.709 771.697,925.454 758.231,925.454 
  "/>
<path clip-path="url(#clip2502)" d="
M771.697 895.809 L771.697 987.709 L785.164 987.709 L785.164 895.809 L771.697 895.809 L771.697 895.809  Z
  " fill="#64b489" fill-rule="evenodd" fill-opacity="1"/>
<polyline clip-path="url(#clip2502)" style="stroke:#c0c1c2; stroke-width:4; stroke-opacity:0.8; fill:none" points="
  771.697,895.809 771.697,987.709 785.164,987.709 785.164,895.809 771.697,895.809 
  "/>
<path clip-path="url(#clip2502)" d="
M785.164 852.823 L785.164 987.709 L798.63 987.709 L798.63 852.823 L785.164 852.823 L785.164 852.823  Z
  " fill="#64b489" fill-rule="evenodd" fill-opacity="1"/>
<polyline clip-path="url(#clip2502)" style="stroke:#c0c1c2; stroke-width:4; stroke-opacity:0.8; fill:none" points="
  785.164,852.823 785.164,987.709 798.63,987.709 798.63,852.823 785.164,852.823 
  "/>
<path clip-path="url(#clip2502)" d="
M798.63 843.93 L798.63 987.709 L812.097 987.709 L812.097 843.93 L798.63 843.93 L798.63 843.93  Z
  " fill="#64b489" fill-rule="evenodd" fill-opacity="1"/>
<polyline clip-path="url(#clip2502)" style="stroke:#c0c1c2; stroke-width:4; stroke-opacity:0.8; fill:none" points="
  798.63,843.93 798.63,987.709 812.097,987.709 812.097,843.93 798.63,843.93 
  "/>
<path clip-path="url(#clip2502)" d="
M812.097 783.157 L812.097 987.709 L825.563 987.709 L825.563 783.157 L812.097 783.157 L812.097 783.157  Z
  " fill="#64b489" fill-rule="evenodd" fill-opacity="1"/>
<polyline clip-path="url(#clip2502)" style="stroke:#c0c1c2; stroke-width:4; stroke-opacity:0.8; fill:none" points="
  812.097,783.157 812.097,987.709 825.563,987.709 825.563,783.157 812.097,783.157 
  "/>
<path clip-path="url(#clip2502)" d="
M825.563 787.604 L825.563 987.709 L839.03 987.709 L839.03 787.604 L825.563 787.604 L825.563 787.604  Z
  " fill="#64b489" fill-rule="evenodd" fill-opacity="1"/>
<polyline clip-path="url(#clip2502)" style="stroke:#c0c1c2; stroke-width:4; stroke-opacity:0.8; fill:none" points="
  825.563,787.604 825.563,987.709 839.03,987.709 839.03,787.604 825.563,787.604 
  "/>
<path clip-path="url(#clip2502)" d="
M839.03 768.334 L839.03 987.709 L852.496 987.709 L852.496 768.334 L839.03 768.334 L839.03 768.334  Z
  " fill="#64b489" fill-rule="evenodd" fill-opacity="1"/>
<polyline clip-path="url(#clip2502)" style="stroke:#c0c1c2; stroke-width:4; stroke-opacity:0.8; fill:none" points="
  839.03,768.334 839.03,987.709 852.496,987.709 852.496,768.334 839.03,768.334 
  "/>
<path clip-path="url(#clip2502)" d="
M852.496 765.37 L852.496 987.709 L865.963 987.709 L865.963 765.37 L852.496 765.37 L852.496 765.37  Z
  " fill="#64b489" fill-rule="evenodd" fill-opacity="1"/>
<polyline clip-path="url(#clip2502)" style="stroke:#c0c1c2; stroke-width:4; stroke-opacity:0.8; fill:none" points="
  852.496,765.37 852.496,987.709 865.963,987.709 865.963,765.37 852.496,765.37 
  "/>
<path clip-path="url(#clip2502)" d="
M865.963 780.192 L865.963 987.709 L879.429 987.709 L879.429 780.192 L865.963 780.192 L865.963 780.192  Z
  " fill="#64b489" fill-rule="evenodd" fill-opacity="1"/>
<polyline clip-path="url(#clip2502)" style="stroke:#c0c1c2; stroke-width:4; stroke-opacity:0.8; fill:none" points="
  865.963,780.192 865.963,987.709 879.429,987.709 879.429,780.192 865.963,780.192 
  "/>
<path clip-path="url(#clip2502)" d="
M879.429 661.612 L879.429 987.709 L892.896 987.709 L892.896 661.612 L879.429 661.612 L879.429 661.612  Z
  " fill="#64b489" fill-rule="evenodd" fill-opacity="1"/>
<polyline clip-path="url(#clip2502)" style="stroke:#c0c1c2; stroke-width:4; stroke-opacity:0.8; fill:none" points="
  879.429,661.612 879.429,987.709 892.896,987.709 892.896,661.612 879.429,661.612 
  "/>
<path clip-path="url(#clip2502)" d="
M892.896 743.136 L892.896 987.709 L906.362 987.709 L906.362 743.136 L892.896 743.136 L892.896 743.136  Z
  " fill="#64b489" fill-rule="evenodd" fill-opacity="1"/>
<polyline clip-path="url(#clip2502)" style="stroke:#c0c1c2; stroke-width:4; stroke-opacity:0.8; fill:none" points="
  892.896,743.136 892.896,987.709 906.362,987.709 906.362,743.136 892.896,743.136 
  "/>
<path clip-path="url(#clip2502)" d="
M906.362 783.157 L906.362 987.709 L919.829 987.709 L919.829 783.157 L906.362 783.157 L906.362 783.157  Z
  " fill="#64b489" fill-rule="evenodd" fill-opacity="1"/>
<polyline clip-path="url(#clip2502)" style="stroke:#c0c1c2; stroke-width:4; stroke-opacity:0.8; fill:none" points="
  906.362,783.157 906.362,987.709 919.829,987.709 919.829,783.157 906.362,783.157 
  "/>
<path clip-path="url(#clip2502)" d="
M919.829 796.497 L919.829 987.709 L933.296 987.709 L933.296 796.497 L919.829 796.497 L919.829 796.497  Z
  " fill="#64b489" fill-rule="evenodd" fill-opacity="1"/>
<polyline clip-path="url(#clip2502)" style="stroke:#c0c1c2; stroke-width:4; stroke-opacity:0.8; fill:none" points="
  919.829,796.497 919.829,987.709 933.296,987.709 933.296,796.497 919.829,796.497 
  "/>
<path clip-path="url(#clip2502)" d="
M933.296 845.412 L933.296 987.709 L946.762 987.709 L946.762 845.412 L933.296 845.412 L933.296 845.412  Z
  " fill="#64b489" fill-rule="evenodd" fill-opacity="1"/>
<polyline clip-path="url(#clip2502)" style="stroke:#c0c1c2; stroke-width:4; stroke-opacity:0.8; fill:none" points="
  933.296,845.412 933.296,987.709 946.762,987.709 946.762,845.412 933.296,845.412 
  "/>
<path clip-path="url(#clip2502)" d="
M946.762 872.093 L946.762 987.709 L960.229 987.709 L960.229 872.093 L946.762 872.093 L946.762 872.093  Z
  " fill="#64b489" fill-rule="evenodd" fill-opacity="1"/>
<polyline clip-path="url(#clip2502)" style="stroke:#c0c1c2; stroke-width:4; stroke-opacity:0.8; fill:none" points="
  946.762,872.093 946.762,987.709 960.229,987.709 960.229,872.093 946.762,872.093 
  "/>
<path clip-path="url(#clip2502)" d="
M960.229 891.362 L960.229 987.709 L973.695 987.709 L973.695 891.362 L960.229 891.362 L960.229 891.362  Z
  " fill="#64b489" fill-rule="evenodd" fill-opacity="1"/>
<polyline clip-path="url(#clip2502)" style="stroke:#c0c1c2; stroke-width:4; stroke-opacity:0.8; fill:none" points="
  960.229,891.362 960.229,987.709 973.695,987.709 973.695,891.362 960.229,891.362 
  "/>
<path clip-path="url(#clip2502)" d="
M973.695 915.078 L973.695 987.709 L987.162 987.709 L987.162 915.078 L973.695 915.078 L973.695 915.078  Z
  " fill="#64b489" fill-rule="evenodd" fill-opacity="1"/>
<polyline clip-path="url(#clip2502)" style="stroke:#c0c1c2; stroke-width:4; stroke-opacity:0.8; fill:none" points="
  973.695,915.078 973.695,987.709 987.162,987.709 987.162,915.078 973.695,915.078 
  "/>
<path clip-path="url(#clip2502)" d="
M987.162 922.489 L987.162 987.709 L1000.63 987.709 L1000.63 922.489 L987.162 922.489 L987.162 922.489  Z
  " fill="#64b489" fill-rule="evenodd" fill-opacity="1"/>
<polyline clip-path="url(#clip2502)" style="stroke:#c0c1c2; stroke-width:4; stroke-opacity:0.8; fill:none" points="
  987.162,922.489 987.162,987.709 1000.63,987.709 1000.63,922.489 987.162,922.489 
  "/>
<path clip-path="url(#clip2502)" d="
M1000.63 941.759 L1000.63 987.709 L1014.09 987.709 L1014.09 941.759 L1000.63 941.759 L1000.63 941.759  Z
  " fill="#64b489" fill-rule="evenodd" fill-opacity="1"/>
<polyline clip-path="url(#clip2502)" style="stroke:#c0c1c2; stroke-width:4; stroke-opacity:0.8; fill:none" points="
  1000.63,941.759 1000.63,987.709 1014.09,987.709 1014.09,941.759 1000.63,941.759 
  "/>
<path clip-path="url(#clip2502)" d="
M1014.09 952.135 L1014.09 987.709 L1027.56 987.709 L1027.56 952.135 L1014.09 952.135 L1014.09 952.135  Z
  " fill="#64b489" fill-rule="evenodd" fill-opacity="1"/>
<polyline clip-path="url(#clip2502)" style="stroke:#c0c1c2; stroke-width:4; stroke-opacity:0.8; fill:none" points="
  1014.09,952.135 1014.09,987.709 1027.56,987.709 1027.56,952.135 1014.09,952.135 
  "/>
<path clip-path="url(#clip2502)" d="
M1027.56 966.957 L1027.56 987.709 L1041.03 987.709 L1041.03 966.957 L1027.56 966.957 L1027.56 966.957  Z
  " fill="#64b489" fill-rule="evenodd" fill-opacity="1"/>
<polyline clip-path="url(#clip2502)" style="stroke:#c0c1c2; stroke-width:4; stroke-opacity:0.8; fill:none" points="
  1027.56,966.957 1027.56,987.709 1041.03,987.709 1041.03,966.957 1027.56,966.957 
  "/>
<path clip-path="url(#clip2502)" d="
M1041.03 977.333 L1041.03 987.709 L1054.49 987.709 L1054.49 977.333 L1041.03 977.333 L1041.03 977.333  Z
  " fill="#64b489" fill-rule="evenodd" fill-opacity="1"/>
<polyline clip-path="url(#clip2502)" style="stroke:#c0c1c2; stroke-width:4; stroke-opacity:0.8; fill:none" points="
  1041.03,977.333 1041.03,987.709 1054.49,987.709 1054.49,977.333 1041.03,977.333 
  "/>
<path clip-path="url(#clip2502)" d="
M1054.49 980.298 L1054.49 987.709 L1067.96 987.709 L1067.96 980.298 L1054.49 980.298 L1054.49 980.298  Z
  " fill="#64b489" fill-rule="evenodd" fill-opacity="1"/>
<polyline clip-path="url(#clip2502)" style="stroke:#c0c1c2; stroke-width:4; stroke-opacity:0.8; fill:none" points="
  1054.49,980.298 1054.49,987.709 1067.96,987.709 1067.96,980.298 1054.49,980.298 
  "/>
<path clip-path="url(#clip2502)" d="
M1067.96 977.333 L1067.96 987.709 L1081.43 987.709 L1081.43 977.333 L1067.96 977.333 L1067.96 977.333  Z
  " fill="#64b489" fill-rule="evenodd" fill-opacity="1"/>
<polyline clip-path="url(#clip2502)" style="stroke:#c0c1c2; stroke-width:4; stroke-opacity:0.8; fill:none" points="
  1067.96,977.333 1067.96,987.709 1081.43,987.709 1081.43,977.333 1067.96,977.333 
  "/>
<path clip-path="url(#clip2502)" d="
M1081.43 986.227 L1081.43 987.709 L1094.89 987.709 L1094.89 986.227 L1081.43 986.227 L1081.43 986.227  Z
  " fill="#64b489" fill-rule="evenodd" fill-opacity="1"/>
<polyline clip-path="url(#clip2502)" style="stroke:#c0c1c2; stroke-width:4; stroke-opacity:0.8; fill:none" points="
  1081.43,986.227 1081.43,987.709 1094.89,987.709 1094.89,986.227 1081.43,986.227 
  "/>
<path clip-path="url(#clip2502)" d="
M1094.89 984.744 L1094.89 987.709 L1108.36 987.709 L1108.36 984.744 L1094.89 984.744 L1094.89 984.744  Z
  " fill="#64b489" fill-rule="evenodd" fill-opacity="1"/>
<polyline clip-path="url(#clip2502)" style="stroke:#c0c1c2; stroke-width:4; stroke-opacity:0.8; fill:none" points="
  1094.89,984.744 1094.89,987.709 1108.36,987.709 1108.36,984.744 1094.89,984.744 
  "/>
<polyline clip-path="url(#clip2502)" style="stroke:#768cc3; stroke-width:12; stroke-opacity:1; fill:none" points="
  587.206,1982.96 587.206,-920.613 
  "/>
<polyline clip-path="url(#clip2502)" style="stroke:#768cc3; stroke-width:12; stroke-opacity:1; fill:none" points="
  449.847,1982.96 449.847,-920.613 
  "/>
<polyline clip-path="url(#clip2502)" style="stroke:#f96567; stroke-width:20; stroke-opacity:0.95; fill:none" points="
  105.719,987.691 111.334,987.67 116.95,987.63 122.566,987.552 128.181,987.406 133.797,987.141 139.412,986.675 145.028,985.882 150.643,984.571 156.259,982.473 
  161.874,979.22 167.49,974.327 173.105,967.197 178.721,957.122 184.336,943.322 189.952,924.998 195.568,901.409 201.183,871.975 206.799,836.379 212.414,794.667 
  218.03,747.325 223.645,695.316 229.261,640.061 234.876,583.373 240.492,527.327 246.107,474.104 251.723,425.807 257.338,384.285 262.954,350.984 268.569,326.844 
  274.185,312.243 279.801,307.007 285.416,310.469 291.032,321.561 296.647,338.939 302.263,361.112 307.878,386.563 313.494,413.85 319.109,441.689 324.725,468.995 
  330.34,494.907 335.956,518.785 341.571,540.183 347.187,558.828 352.803,574.582 358.418,587.414 364.034,597.378 369.649,604.601 375.265,609.27 380.88,611.633 
  386.496,611.991 392.111,610.698 397.727,608.145 403.342,604.745 408.958,600.916 414.573,597.054 420.189,593.518 425.805,590.609 431.42,588.563 437.036,587.545 
  442.651,587.656 448.267,588.935 453.882,591.378 459.498,594.941 465.113,599.552 470.729,605.117 476.344,611.523 481.96,618.639 487.575,626.319 493.191,634.403 
  498.807,642.732 504.422,651.148 510.038,659.514 515.653,667.72 521.269,675.695 526.884,683.411 532.5,690.88 538.115,698.147 543.731,705.284 549.346,712.373 
  554.962,719.492 560.577,726.712 566.193,734.082 571.809,741.632 577.424,749.375 583.04,757.306 588.655,765.408 594.271,773.66 599.886,782.033 605.502,790.5 
  611.117,799.025 616.733,807.574 622.348,816.105 627.964,824.578 633.579,832.948 639.195,841.176 644.811,849.227 650.426,857.072 656.042,864.689 661.657,872.059 
  667.273,879.165 672.888,885.982 678.504,892.475 684.119,898.597 689.735,904.281 695.35,909.449 700.966,914.009 706.581,917.864 712.197,920.918 717.813,923.081 
  723.428,924.275 729.044,924.438 734.659,923.524 740.275,921.508 745.89,918.38 751.506,914.152 757.121,908.854 762.737,902.54 768.352,895.286 773.968,887.195 
  779.583,878.392 785.199,869.027 790.815,859.268 796.43,849.291 802.046,839.275 807.661,829.393 813.277,819.799 818.892,810.626 824.508,801.981 830.123,793.947 
  835.739,786.588 841.354,779.955 846.97,774.096 852.585,769.066 858.201,764.932 863.816,761.775 869.432,759.686 875.048,758.764 880.663,759.099 886.279,760.765 
  891.894,763.805 897.51,768.222 903.125,773.971 908.741,780.962 914.356,789.06 919.972,798.092 925.587,807.863 931.203,818.16 936.818,828.771 942.434,839.495 
  948.05,850.148 953.665,860.576 959.281,870.655 964.896,880.293 970.512,889.431 976.127,898.039 981.743,906.112 987.358,913.663 992.974,920.716 998.589,927.301 
  1004.2,933.448 1009.82,939.184 1015.44,944.529 1021.05,949.494 1026.67,954.084 1032.28,958.301 1037.9,962.144 1043.51,965.615 1049.13,968.719 1054.74,971.471 
  1060.36,973.888 1065.98,975.997 1071.59,977.826 1077.21,979.409 1082.82,980.775 1088.44,981.954 1094.05,982.97 1099.67,983.846 1105.28,984.596 1110.9,985.235 
  1116.52,985.773 1122.13,986.22 1127.75,986.586 1133.36,986.879 1138.98,987.109 1144.59,987.285 1150.21,987.416 1155.82,987.512 1161.44,987.58 1167.06,987.626 
  1172.67,987.658 1178.29,987.678 1183.9,987.691 1189.52,987.698 1195.13,987.703 1200.75,987.705 1206.36,987.707 1211.98,987.706 1217.6,987.705 1223.21,987.7 
  
  "/>
<path clip-path="url(#clip2500)" d="
M1806.1 1015.1 L3152.76 1015.1 L3152.76 47.2441 L1806.1 47.2441  Z
  " fill="#ffffff" fill-rule="evenodd" fill-opacity="1"/>
<defs>
  <clipPath id="clip2503">
    <rect x="1806" y="47" width="1348" height="969"/>
  </clipPath>
</defs>
<polyline clip-path="url(#clip2503)" style="stroke:#000000; stroke-width:2; stroke-opacity:0.1; fill:none" points="
  1806.1,1015.1 1806.1,47.2441 
  "/>
<polyline clip-path="url(#clip2503)" style="stroke:#000000; stroke-width:2; stroke-opacity:0.1; fill:none" points="
  2075.43,1015.1 2075.43,47.2441 
  "/>
<polyline clip-path="url(#clip2503)" style="stroke:#000000; stroke-width:2; stroke-opacity:0.1; fill:none" points="
  2344.76,1015.1 2344.76,47.2441 
  "/>
<polyline clip-path="url(#clip2503)" style="stroke:#000000; stroke-width:2; stroke-opacity:0.1; fill:none" points="
  2614.09,1015.1 2614.09,47.2441 
  "/>
<polyline clip-path="url(#clip2503)" style="stroke:#000000; stroke-width:2; stroke-opacity:0.1; fill:none" points="
  2883.43,1015.1 2883.43,47.2441 
  "/>
<polyline clip-path="url(#clip2503)" style="stroke:#000000; stroke-width:2; stroke-opacity:0.1; fill:none" points="
  3152.76,1015.1 3152.76,47.2441 
  "/>
<polyline clip-path="url(#clip2503)" style="stroke:#000000; stroke-width:2; stroke-opacity:0.1; fill:none" points="
  1806.1,987.709 3152.76,987.709 
  "/>
<polyline clip-path="url(#clip2503)" style="stroke:#000000; stroke-width:2; stroke-opacity:0.1; fill:none" points="
  1806.1,849.882 3152.76,849.882 
  "/>
<polyline clip-path="url(#clip2503)" style="stroke:#000000; stroke-width:2; stroke-opacity:0.1; fill:none" points="
  1806.1,712.056 3152.76,712.056 
  "/>
<polyline clip-path="url(#clip2503)" style="stroke:#000000; stroke-width:2; stroke-opacity:0.1; fill:none" points="
  1806.1,574.229 3152.76,574.229 
  "/>
<polyline clip-path="url(#clip2503)" style="stroke:#000000; stroke-width:2; stroke-opacity:0.1; fill:none" points="
  1806.1,436.403 3152.76,436.403 
  "/>
<polyline clip-path="url(#clip2503)" style="stroke:#000000; stroke-width:2; stroke-opacity:0.1; fill:none" points="
  1806.1,298.576 3152.76,298.576 
  "/>
<polyline clip-path="url(#clip2503)" style="stroke:#000000; stroke-width:2; stroke-opacity:0.1; fill:none" points="
  1806.1,160.75 3152.76,160.75 
  "/>
<polyline clip-path="url(#clip2500)" style="stroke:#000000; stroke-width:4; stroke-opacity:1; fill:none" points="
  1806.1,1015.1 3152.76,1015.1 
  "/>
<polyline clip-path="url(#clip2500)" style="stroke:#000000; stroke-width:4; stroke-opacity:1; fill:none" points="
  1806.1,1015.1 1806.1,47.2441 
  "/>
<polyline clip-path="url(#clip2500)" style="stroke:#000000; stroke-width:4; stroke-opacity:1; fill:none" points="
  1806.1,1015.1 1806.1,1003.49 
  "/>
<polyline clip-path="url(#clip2500)" style="stroke:#000000; stroke-width:4; stroke-opacity:1; fill:none" points="
  2075.43,1015.1 2075.43,1003.49 
  "/>
<polyline clip-path="url(#clip2500)" style="stroke:#000000; stroke-width:4; stroke-opacity:1; fill:none" points="
  2344.76,1015.1 2344.76,1003.49 
  "/>
<polyline clip-path="url(#clip2500)" style="stroke:#000000; stroke-width:4; stroke-opacity:1; fill:none" points="
  2614.09,1015.1 2614.09,1003.49 
  "/>
<polyline clip-path="url(#clip2500)" style="stroke:#000000; stroke-width:4; stroke-opacity:1; fill:none" points="
  2883.43,1015.1 2883.43,1003.49 
  "/>
<polyline clip-path="url(#clip2500)" style="stroke:#000000; stroke-width:4; stroke-opacity:1; fill:none" points="
  3152.76,1015.1 3152.76,1003.49 
  "/>
<polyline clip-path="url(#clip2500)" style="stroke:#000000; stroke-width:4; stroke-opacity:1; fill:none" points="
  1806.1,987.709 1822.26,987.709 
  "/>
<polyline clip-path="url(#clip2500)" style="stroke:#000000; stroke-width:4; stroke-opacity:1; fill:none" points="
  1806.1,849.882 1822.26,849.882 
  "/>
<polyline clip-path="url(#clip2500)" style="stroke:#000000; stroke-width:4; stroke-opacity:1; fill:none" points="
  1806.1,712.056 1822.26,712.056 
  "/>
<polyline clip-path="url(#clip2500)" style="stroke:#000000; stroke-width:4; stroke-opacity:1; fill:none" points="
  1806.1,574.229 1822.26,574.229 
  "/>
<polyline clip-path="url(#clip2500)" style="stroke:#000000; stroke-width:4; stroke-opacity:1; fill:none" points="
  1806.1,436.403 1822.26,436.403 
  "/>
<polyline clip-path="url(#clip2500)" style="stroke:#000000; stroke-width:4; stroke-opacity:1; fill:none" points="
  1806.1,298.576 1822.26,298.576 
  "/>
<polyline clip-path="url(#clip2500)" style="stroke:#000000; stroke-width:4; stroke-opacity:1; fill:none" points="
  1806.1,160.75 1822.26,160.75 
  "/>
<g clip-path="url(#clip2500)">
<text style="fill:#000000; fill-opacity:1; font-family:Arial,Helvetica Neue,Helvetica,sans-serif; font-size:48px; text-anchor:middle;" transform="rotate(0, 1806.1, 1073.1)" x="1806.1" y="1073.1">0.0</text>
</g>
<g clip-path="url(#clip2500)">
<text style="fill:#000000; fill-opacity:1; font-family:Arial,Helvetica Neue,Helvetica,sans-serif; font-size:48px; text-anchor:middle;" transform="rotate(0, 2075.43, 1073.1)" x="2075.43" y="1073.1">0.2</text>
</g>
<g clip-path="url(#clip2500)">
<text style="fill:#000000; fill-opacity:1; font-family:Arial,Helvetica Neue,Helvetica,sans-serif; font-size:48px; text-anchor:middle;" transform="rotate(0, 2344.76, 1073.1)" x="2344.76" y="1073.1">0.4</text>
</g>
<g clip-path="url(#clip2500)">
<text style="fill:#000000; fill-opacity:1; font-family:Arial,Helvetica Neue,Helvetica,sans-serif; font-size:48px; text-anchor:middle;" transform="rotate(0, 2614.09, 1073.1)" x="2614.09" y="1073.1">0.6</text>
</g>
<g clip-path="url(#clip2500)">
<text style="fill:#000000; fill-opacity:1; font-family:Arial,Helvetica Neue,Helvetica,sans-serif; font-size:48px; text-anchor:middle;" transform="rotate(0, 2883.43, 1073.1)" x="2883.43" y="1073.1">0.8</text>
</g>
<g clip-path="url(#clip2500)">
<text style="fill:#000000; fill-opacity:1; font-family:Arial,Helvetica Neue,Helvetica,sans-serif; font-size:48px; text-anchor:middle;" transform="rotate(0, 3152.76, 1073.1)" x="3152.76" y="1073.1">1.0</text>
</g>
<g clip-path="url(#clip2500)">
<text style="fill:#000000; fill-opacity:1; font-family:Arial,Helvetica Neue,Helvetica,sans-serif; font-size:48px; text-anchor:end;" transform="rotate(0, 1774.1, 1005.21)" x="1774.1" y="1005.21">0</text>
</g>
<g clip-path="url(#clip2500)">
<text style="fill:#000000; fill-opacity:1; font-family:Arial,Helvetica Neue,Helvetica,sans-serif; font-size:48px; text-anchor:end;" transform="rotate(0, 1774.1, 867.382)" x="1774.1" y="867.382">1</text>
</g>
<g clip-path="url(#clip2500)">
<text style="fill:#000000; fill-opacity:1; font-family:Arial,Helvetica Neue,Helvetica,sans-serif; font-size:48px; text-anchor:end;" transform="rotate(0, 1774.1, 729.556)" x="1774.1" y="729.556">2</text>
</g>
<g clip-path="url(#clip2500)">
<text style="fill:#000000; fill-opacity:1; font-family:Arial,Helvetica Neue,Helvetica,sans-serif; font-size:48px; text-anchor:end;" transform="rotate(0, 1774.1, 591.729)" x="1774.1" y="591.729">3</text>
</g>
<g clip-path="url(#clip2500)">
<text style="fill:#000000; fill-opacity:1; font-family:Arial,Helvetica Neue,Helvetica,sans-serif; font-size:48px; text-anchor:end;" transform="rotate(0, 1774.1, 453.903)" x="1774.1" y="453.903">4</text>
</g>
<g clip-path="url(#clip2500)">
<text style="fill:#000000; fill-opacity:1; font-family:Arial,Helvetica Neue,Helvetica,sans-serif; font-size:48px; text-anchor:end;" transform="rotate(0, 1774.1, 316.076)" x="1774.1" y="316.076">5</text>
</g>
<g clip-path="url(#clip2500)">
<text style="fill:#000000; fill-opacity:1; font-family:Arial,Helvetica Neue,Helvetica,sans-serif; font-size:48px; text-anchor:end;" transform="rotate(0, 1774.1, 178.25)" x="1774.1" y="178.25">6</text>
</g>
<g clip-path="url(#clip2500)">
<text style="fill:#000000; fill-opacity:1; font-family:Arial,Helvetica Neue,Helvetica,sans-serif; font-size:66px; text-anchor:middle;" transform="rotate(0, 2479.43, 1156.96)" x="2479.43" y="1156.96">Variant allele frequency (VAF)</text>
</g>
<g clip-path="url(#clip2500)">
<text style="fill:#000000; fill-opacity:1; font-family:Arial,Helvetica Neue,Helvetica,sans-serif; font-size:66px; text-anchor:middle;" transform="rotate(-90, 1703.78, 531.173)" x="1703.78" y="531.173">Density</text>
</g>
<path clip-path="url(#clip2503)" d="
M1819.57 853.68 L1819.57 987.709 L1833.04 987.709 L1833.04 853.68 L1819.57 853.68 L1819.57 853.68  Z
  " fill="#64b489" fill-rule="evenodd" fill-opacity="1"/>
<polyline clip-path="url(#clip2503)" style="stroke:#c0c1c2; stroke-width:4; stroke-opacity:0.8; fill:none" points="
  1819.57,853.68 1819.57,987.709 1833.04,987.709 1833.04,853.68 1819.57,853.68 
  "/>
<path clip-path="url(#clip2503)" d="
M1833.04 507.438 L1833.04 987.709 L1846.5 987.709 L1846.5 507.438 L1833.04 507.438 L1833.04 507.438  Z
  " fill="#64b489" fill-rule="evenodd" fill-opacity="1"/>
<polyline clip-path="url(#clip2503)" style="stroke:#c0c1c2; stroke-width:4; stroke-opacity:0.8; fill:none" points="
  1833.04,507.438 1833.04,987.709 1846.5,987.709 1846.5,507.438 1833.04,507.438 
  "/>
<path clip-path="url(#clip2503)" d="
M1846.5 256.134 L1846.5 987.709 L1859.97 987.709 L1859.97 256.134 L1846.5 256.134 L1846.5 256.134  Z
  " fill="#64b489" fill-rule="evenodd" fill-opacity="1"/>
<polyline clip-path="url(#clip2503)" style="stroke:#c0c1c2; stroke-width:4; stroke-opacity:0.8; fill:none" points="
  1846.5,256.134 1846.5,987.709 1859.97,987.709 1859.97,256.134 1846.5,256.134 
  "/>
<path clip-path="url(#clip2503)" d="
M1859.97 136.066 L1859.97 987.709 L1873.44 987.709 L1873.44 136.066 L1859.97 136.066 L1859.97 136.066  Z
  " fill="#64b489" fill-rule="evenodd" fill-opacity="1"/>
<polyline clip-path="url(#clip2503)" style="stroke:#c0c1c2; stroke-width:4; stroke-opacity:0.8; fill:none" points="
  1859.97,136.066 1859.97,987.709 1873.44,987.709 1873.44,136.066 1859.97,136.066 
  "/>
<path clip-path="url(#clip2503)" d="
M1873.44 74.6363 L1873.44 987.709 L1886.9 987.709 L1886.9 74.6363 L1873.44 74.6363 L1873.44 74.6363  Z
  " fill="#64b489" fill-rule="evenodd" fill-opacity="1"/>
<polyline clip-path="url(#clip2503)" style="stroke:#c0c1c2; stroke-width:4; stroke-opacity:0.8; fill:none" points="
  1873.44,74.6363 1873.44,987.709 1886.9,987.709 1886.9,74.6363 1873.44,74.6363 
  "/>
<path clip-path="url(#clip2503)" d="
M1886.9 119.313 L1886.9 987.709 L1900.37 987.709 L1900.37 119.313 L1886.9 119.313 L1886.9 119.313  Z
  " fill="#64b489" fill-rule="evenodd" fill-opacity="1"/>
<polyline clip-path="url(#clip2503)" style="stroke:#c0c1c2; stroke-width:4; stroke-opacity:0.8; fill:none" points="
  1886.9,119.313 1886.9,987.709 1900.37,987.709 1900.37,119.313 1886.9,119.313 
  "/>
<path clip-path="url(#clip2503)" d="
M1900.37 278.472 L1900.37 987.709 L1913.84 987.709 L1913.84 278.472 L1900.37 278.472 L1900.37 278.472  Z
  " fill="#64b489" fill-rule="evenodd" fill-opacity="1"/>
<polyline clip-path="url(#clip2503)" style="stroke:#c0c1c2; stroke-width:4; stroke-opacity:0.8; fill:none" points="
  1900.37,278.472 1900.37,987.709 1913.84,987.709 1913.84,278.472 1900.37,278.472 
  "/>
<path clip-path="url(#clip2503)" d="
M1913.84 457.177 L1913.84 987.709 L1927.3 987.709 L1927.3 457.177 L1913.84 457.177 L1913.84 457.177  Z
  " fill="#64b489" fill-rule="evenodd" fill-opacity="1"/>
<polyline clip-path="url(#clip2503)" style="stroke:#c0c1c2; stroke-width:4; stroke-opacity:0.8; fill:none" points="
  1913.84,457.177 1913.84,987.709 1927.3,987.709 1927.3,457.177 1913.84,457.177 
  "/>
<path clip-path="url(#clip2503)" d="
M1927.3 596.791 L1927.3 987.709 L1940.77 987.709 L1940.77 596.791 L1927.3 596.791 L1927.3 596.791  Z
  " fill="#64b489" fill-rule="evenodd" fill-opacity="1"/>
<polyline clip-path="url(#clip2503)" style="stroke:#c0c1c2; stroke-width:4; stroke-opacity:0.8; fill:none" points="
  1927.3,596.791 1927.3,987.709 1940.77,987.709 1940.77,596.791 1927.3,596.791 
  "/>
<path clip-path="url(#clip2503)" d="
M1940.77 599.583 L1940.77 987.709 L1954.23 987.709 L1954.23 599.583 L1940.77 599.583 L1940.77 599.583  Z
  " fill="#64b489" fill-rule="evenodd" fill-opacity="1"/>
<polyline clip-path="url(#clip2503)" style="stroke:#c0c1c2; stroke-width:4; stroke-opacity:0.8; fill:none" points="
  1940.77,599.583 1940.77,987.709 1954.23,987.709 1954.23,599.583 1940.77,599.583 
  "/>
<path clip-path="url(#clip2503)" d="
M1954.23 739.197 L1954.23 987.709 L1967.7 987.709 L1967.7 739.197 L1954.23 739.197 L1954.23 739.197  Z
  " fill="#64b489" fill-rule="evenodd" fill-opacity="1"/>
<polyline clip-path="url(#clip2503)" style="stroke:#c0c1c2; stroke-width:4; stroke-opacity:0.8; fill:none" points="
  1954.23,739.197 1954.23,987.709 1967.7,987.709 1967.7,739.197 1954.23,739.197 
  "/>
<path clip-path="url(#clip2503)" d="
M1967.7 753.158 L1967.7 987.709 L1981.17 987.709 L1981.17 753.158 L1967.7 753.158 L1967.7 753.158  Z
  " fill="#64b489" fill-rule="evenodd" fill-opacity="1"/>
<polyline clip-path="url(#clip2503)" style="stroke:#c0c1c2; stroke-width:4; stroke-opacity:0.8; fill:none" points="
  1967.7,753.158 1967.7,987.709 1981.17,987.709 1981.17,753.158 1967.7,753.158 
  "/>
<path clip-path="url(#clip2503)" d="
M1981.17 839.719 L1981.17 987.709 L1994.63 987.709 L1994.63 839.719 L1981.17 839.719 L1981.17 839.719  Z
  " fill="#64b489" fill-rule="evenodd" fill-opacity="1"/>
<polyline clip-path="url(#clip2503)" style="stroke:#c0c1c2; stroke-width:4; stroke-opacity:0.8; fill:none" points="
  1981.17,839.719 1981.17,987.709 1994.63,987.709 1994.63,839.719 1981.17,839.719 
  "/>
<path clip-path="url(#clip2503)" d="
M1994.63 828.549 L1994.63 987.709 L2008.1 987.709 L2008.1 828.549 L1994.63 828.549 L1994.63 828.549  Z
  " fill="#64b489" fill-rule="evenodd" fill-opacity="1"/>
<polyline clip-path="url(#clip2503)" style="stroke:#c0c1c2; stroke-width:4; stroke-opacity:0.8; fill:none" points="
  1994.63,828.549 1994.63,987.709 2008.1,987.709 2008.1,828.549 1994.63,828.549 
  "/>
<path clip-path="url(#clip2503)" d="
M2008.1 889.979 L2008.1 987.709 L2021.57 987.709 L2021.57 889.979 L2008.1 889.979 L2008.1 889.979  Z
  " fill="#64b489" fill-rule="evenodd" fill-opacity="1"/>
<polyline clip-path="url(#clip2503)" style="stroke:#c0c1c2; stroke-width:4; stroke-opacity:0.8; fill:none" points="
  2008.1,889.979 2008.1,987.709 2021.57,987.709 2021.57,889.979 2008.1,889.979 
  "/>
<path clip-path="url(#clip2503)" d="
M2021.57 881.603 L2021.57 987.709 L2035.03 987.709 L2035.03 881.603 L2021.57 881.603 L2021.57 881.603  Z
  " fill="#64b489" fill-rule="evenodd" fill-opacity="1"/>
<polyline clip-path="url(#clip2503)" style="stroke:#c0c1c2; stroke-width:4; stroke-opacity:0.8; fill:none" points="
  2021.57,881.603 2021.57,987.709 2035.03,987.709 2035.03,881.603 2021.57,881.603 
  "/>
<path clip-path="url(#clip2503)" d="
M2035.03 889.979 L2035.03 987.709 L2048.5 987.709 L2048.5 889.979 L2035.03 889.979 L2035.03 889.979  Z
  " fill="#64b489" fill-rule="evenodd" fill-opacity="1"/>
<polyline clip-path="url(#clip2503)" style="stroke:#c0c1c2; stroke-width:4; stroke-opacity:0.8; fill:none" points="
  2035.03,889.979 2035.03,987.709 2048.5,987.709 2048.5,889.979 2035.03,889.979 
  "/>
<path clip-path="url(#clip2503)" d="
M2048.5 934.656 L2048.5 987.709 L2061.97 987.709 L2061.97 934.656 L2048.5 934.656 L2048.5 934.656  Z
  " fill="#64b489" fill-rule="evenodd" fill-opacity="1"/>
<polyline clip-path="url(#clip2503)" style="stroke:#c0c1c2; stroke-width:4; stroke-opacity:0.8; fill:none" points="
  2048.5,934.656 2048.5,987.709 2061.97,987.709 2061.97,934.656 2048.5,934.656 
  "/>
<path clip-path="url(#clip2503)" d="
M2061.97 895.564 L2061.97 987.709 L2075.43 987.709 L2075.43 895.564 L2061.97 895.564 L2061.97 895.564  Z
  " fill="#64b489" fill-rule="evenodd" fill-opacity="1"/>
<polyline clip-path="url(#clip2503)" style="stroke:#c0c1c2; stroke-width:4; stroke-opacity:0.8; fill:none" points="
  2061.97,895.564 2061.97,987.709 2075.43,987.709 2075.43,895.564 2061.97,895.564 
  "/>
<path clip-path="url(#clip2503)" d="
M2075.43 943.033 L2075.43 987.709 L2088.9 987.709 L2088.9 943.033 L2075.43 943.033 L2075.43 943.033  Z
  " fill="#64b489" fill-rule="evenodd" fill-opacity="1"/>
<polyline clip-path="url(#clip2503)" style="stroke:#c0c1c2; stroke-width:4; stroke-opacity:0.8; fill:none" points="
  2075.43,943.033 2075.43,987.709 2088.9,987.709 2088.9,943.033 2075.43,943.033 
  "/>
<path clip-path="url(#clip2503)" d="
M2088.9 940.24 L2088.9 987.709 L2102.37 987.709 L2102.37 940.24 L2088.9 940.24 L2088.9 940.24  Z
  " fill="#64b489" fill-rule="evenodd" fill-opacity="1"/>
<polyline clip-path="url(#clip2503)" style="stroke:#c0c1c2; stroke-width:4; stroke-opacity:0.8; fill:none" points="
  2088.9,940.24 2088.9,987.709 2102.37,987.709 2102.37,940.24 2088.9,940.24 
  "/>
<path clip-path="url(#clip2503)" d="
M2102.37 923.487 L2102.37 987.709 L2115.83 987.709 L2115.83 923.487 L2102.37 923.487 L2102.37 923.487  Z
  " fill="#64b489" fill-rule="evenodd" fill-opacity="1"/>
<polyline clip-path="url(#clip2503)" style="stroke:#c0c1c2; stroke-width:4; stroke-opacity:0.8; fill:none" points="
  2102.37,923.487 2102.37,987.709 2115.83,987.709 2115.83,923.487 2102.37,923.487 
  "/>
<path clip-path="url(#clip2503)" d="
M2115.83 934.656 L2115.83 987.709 L2129.3 987.709 L2129.3 934.656 L2115.83 934.656 L2115.83 934.656  Z
  " fill="#64b489" fill-rule="evenodd" fill-opacity="1"/>
<polyline clip-path="url(#clip2503)" style="stroke:#c0c1c2; stroke-width:4; stroke-opacity:0.8; fill:none" points="
  2115.83,934.656 2115.83,987.709 2129.3,987.709 2129.3,934.656 2115.83,934.656 
  "/>
<path clip-path="url(#clip2503)" d="
M2129.3 968.163 L2129.3 987.709 L2142.77 987.709 L2142.77 968.163 L2129.3 968.163 L2129.3 968.163  Z
  " fill="#64b489" fill-rule="evenodd" fill-opacity="1"/>
<polyline clip-path="url(#clip2503)" style="stroke:#c0c1c2; stroke-width:4; stroke-opacity:0.8; fill:none" points="
  2129.3,968.163 2129.3,987.709 2142.77,987.709 2142.77,968.163 2129.3,968.163 
  "/>
<path clip-path="url(#clip2503)" d="
M2142.77 945.825 L2142.77 987.709 L2156.23 987.709 L2156.23 945.825 L2142.77 945.825 L2142.77 945.825  Z
  " fill="#64b489" fill-rule="evenodd" fill-opacity="1"/>
<polyline clip-path="url(#clip2503)" style="stroke:#c0c1c2; stroke-width:4; stroke-opacity:0.8; fill:none" points="
  2142.77,945.825 2142.77,987.709 2156.23,987.709 2156.23,945.825 2142.77,945.825 
  "/>
<path clip-path="url(#clip2503)" d="
M2156.23 954.202 L2156.23 987.709 L2169.7 987.709 L2169.7 954.202 L2156.23 954.202 L2156.23 954.202  Z
  " fill="#64b489" fill-rule="evenodd" fill-opacity="1"/>
<polyline clip-path="url(#clip2503)" style="stroke:#c0c1c2; stroke-width:4; stroke-opacity:0.8; fill:none" points="
  2156.23,954.202 2156.23,987.709 2169.7,987.709 2169.7,954.202 2156.23,954.202 
  "/>
<path clip-path="url(#clip2503)" d="
M2169.7 976.54 L2169.7 987.709 L2183.17 987.709 L2183.17 976.54 L2169.7 976.54 L2169.7 976.54  Z
  " fill="#64b489" fill-rule="evenodd" fill-opacity="1"/>
<polyline clip-path="url(#clip2503)" style="stroke:#c0c1c2; stroke-width:4; stroke-opacity:0.8; fill:none" points="
  2169.7,976.54 2169.7,987.709 2183.17,987.709 2183.17,976.54 2169.7,976.54 
  "/>
<path clip-path="url(#clip2503)" d="
M2183.17 965.371 L2183.17 987.709 L2196.63 987.709 L2196.63 965.371 L2183.17 965.371 L2183.17 965.371  Z
  " fill="#64b489" fill-rule="evenodd" fill-opacity="1"/>
<polyline clip-path="url(#clip2503)" style="stroke:#c0c1c2; stroke-width:4; stroke-opacity:0.8; fill:none" points="
  2183.17,965.371 2183.17,987.709 2196.63,987.709 2196.63,965.371 2183.17,965.371 
  "/>
<path clip-path="url(#clip2503)" d="
M2196.63 973.748 L2196.63 987.709 L2210.1 987.709 L2210.1 973.748 L2196.63 973.748 L2196.63 973.748  Z
  " fill="#64b489" fill-rule="evenodd" fill-opacity="1"/>
<polyline clip-path="url(#clip2503)" style="stroke:#c0c1c2; stroke-width:4; stroke-opacity:0.8; fill:none" points="
  2196.63,973.748 2196.63,987.709 2210.1,987.709 2210.1,973.748 2196.63,973.748 
  "/>
<path clip-path="url(#clip2503)" d="
M2210.1 976.54 L2210.1 987.709 L2223.57 987.709 L2223.57 976.54 L2210.1 976.54 L2210.1 976.54  Z
  " fill="#64b489" fill-rule="evenodd" fill-opacity="1"/>
<polyline clip-path="url(#clip2503)" style="stroke:#c0c1c2; stroke-width:4; stroke-opacity:0.8; fill:none" points="
  2210.1,976.54 2210.1,987.709 2223.57,987.709 2223.57,976.54 2210.1,976.54 
  "/>
<path clip-path="url(#clip2503)" d="
M2223.57 973.748 L2223.57 987.709 L2237.03 987.709 L2237.03 973.748 L2223.57 973.748 L2223.57 973.748  Z
  " fill="#64b489" fill-rule="evenodd" fill-opacity="1"/>
<polyline clip-path="url(#clip2503)" style="stroke:#c0c1c2; stroke-width:4; stroke-opacity:0.8; fill:none" points="
  2223.57,973.748 2223.57,987.709 2237.03,987.709 2237.03,973.748 2223.57,973.748 
  "/>
<path clip-path="url(#clip2503)" d="
M2237.03 976.54 L2237.03 987.709 L2250.5 987.709 L2250.5 976.54 L2237.03 976.54 L2237.03 976.54  Z
  " fill="#64b489" fill-rule="evenodd" fill-opacity="1"/>
<polyline clip-path="url(#clip2503)" style="stroke:#c0c1c2; stroke-width:4; stroke-opacity:0.8; fill:none" points="
  2237.03,976.54 2237.03,987.709 2250.5,987.709 2250.5,976.54 2237.03,976.54 
  "/>
<path clip-path="url(#clip2503)" d="
M2250.5 976.54 L2250.5 987.709 L2263.96 987.709 L2263.96 976.54 L2250.5 976.54 L2250.5 976.54  Z
  " fill="#64b489" fill-rule="evenodd" fill-opacity="1"/>
<polyline clip-path="url(#clip2503)" style="stroke:#c0c1c2; stroke-width:4; stroke-opacity:0.8; fill:none" points="
  2250.5,976.54 2250.5,987.709 2263.96,987.709 2263.96,976.54 2250.5,976.54 
  "/>
<path clip-path="url(#clip2503)" d="
M2263.96 965.371 L2263.96 987.709 L2277.43 987.709 L2277.43 965.371 L2263.96 965.371 L2263.96 965.371  Z
  " fill="#64b489" fill-rule="evenodd" fill-opacity="1"/>
<polyline clip-path="url(#clip2503)" style="stroke:#c0c1c2; stroke-width:4; stroke-opacity:0.8; fill:none" points="
  2263.96,965.371 2263.96,987.709 2277.43,987.709 2277.43,965.371 2263.96,965.371 
  "/>
<path clip-path="url(#clip2503)" d="
M2277.43 970.955 L2277.43 987.709 L2290.9 987.709 L2290.9 970.955 L2277.43 970.955 L2277.43 970.955  Z
  " fill="#64b489" fill-rule="evenodd" fill-opacity="1"/>
<polyline clip-path="url(#clip2503)" style="stroke:#c0c1c2; stroke-width:4; stroke-opacity:0.8; fill:none" points="
  2277.43,970.955 2277.43,987.709 2290.9,987.709 2290.9,970.955 2277.43,970.955 
  "/>
<path clip-path="url(#clip2503)" d="
M2290.9 959.786 L2290.9 987.709 L2304.36 987.709 L2304.36 959.786 L2290.9 959.786 L2290.9 959.786  Z
  " fill="#64b489" fill-rule="evenodd" fill-opacity="1"/>
<polyline clip-path="url(#clip2503)" style="stroke:#c0c1c2; stroke-width:4; stroke-opacity:0.8; fill:none" points="
  2290.9,959.786 2290.9,987.709 2304.36,987.709 2304.36,959.786 2290.9,959.786 
  "/>
<path clip-path="url(#clip2503)" d="
M2304.36 943.033 L2304.36 987.709 L2317.83 987.709 L2317.83 943.033 L2304.36 943.033 L2304.36 943.033  Z
  " fill="#64b489" fill-rule="evenodd" fill-opacity="1"/>
<polyline clip-path="url(#clip2503)" style="stroke:#c0c1c2; stroke-width:4; stroke-opacity:0.8; fill:none" points="
  2304.36,943.033 2304.36,987.709 2317.83,987.709 2317.83,943.033 2304.36,943.033 
  "/>
<path clip-path="url(#clip2503)" d="
M2317.83 951.409 L2317.83 987.709 L2331.3 987.709 L2331.3 951.409 L2317.83 951.409 L2317.83 951.409  Z
  " fill="#64b489" fill-rule="evenodd" fill-opacity="1"/>
<polyline clip-path="url(#clip2503)" style="stroke:#c0c1c2; stroke-width:4; stroke-opacity:0.8; fill:none" points="
  2317.83,951.409 2317.83,987.709 2331.3,987.709 2331.3,951.409 2317.83,951.409 
  "/>
<path clip-path="url(#clip2503)" d="
M2331.3 926.279 L2331.3 987.709 L2344.76 987.709 L2344.76 926.279 L2331.3 926.279 L2331.3 926.279  Z
  " fill="#64b489" fill-rule="evenodd" fill-opacity="1"/>
<polyline clip-path="url(#clip2503)" style="stroke:#c0c1c2; stroke-width:4; stroke-opacity:0.8; fill:none" points="
  2331.3,926.279 2331.3,987.709 2344.76,987.709 2344.76,926.279 2331.3,926.279 
  "/>
<path clip-path="url(#clip2503)" d="
M2344.76 887.187 L2344.76 987.709 L2358.23 987.709 L2358.23 887.187 L2344.76 887.187 L2344.76 887.187  Z
  " fill="#64b489" fill-rule="evenodd" fill-opacity="1"/>
<polyline clip-path="url(#clip2503)" style="stroke:#c0c1c2; stroke-width:4; stroke-opacity:0.8; fill:none" points="
  2344.76,887.187 2344.76,987.709 2358.23,987.709 2358.23,887.187 2344.76,887.187 
  "/>
<path clip-path="url(#clip2503)" d="
M2358.23 850.888 L2358.23 987.709 L2371.7 987.709 L2371.7 850.888 L2358.23 850.888 L2358.23 850.888  Z
  " fill="#64b489" fill-rule="evenodd" fill-opacity="1"/>
<polyline clip-path="url(#clip2503)" style="stroke:#c0c1c2; stroke-width:4; stroke-opacity:0.8; fill:none" points="
  2358.23,850.888 2358.23,987.709 2371.7,987.709 2371.7,850.888 2358.23,850.888 
  "/>
<path clip-path="url(#clip2503)" d="
M2371.7 778.289 L2371.7 987.709 L2385.16 987.709 L2385.16 778.289 L2371.7 778.289 L2371.7 778.289  Z
  " fill="#64b489" fill-rule="evenodd" fill-opacity="1"/>
<polyline clip-path="url(#clip2503)" style="stroke:#c0c1c2; stroke-width:4; stroke-opacity:0.8; fill:none" points="
  2371.7,778.289 2371.7,987.709 2385.16,987.709 2385.16,778.289 2371.7,778.289 
  "/>
<path clip-path="url(#clip2503)" d="
M2385.16 786.665 L2385.16 987.709 L2398.63 987.709 L2398.63 786.665 L2385.16 786.665 L2385.16 786.665  Z
  " fill="#64b489" fill-rule="evenodd" fill-opacity="1"/>
<polyline clip-path="url(#clip2503)" style="stroke:#c0c1c2; stroke-width:4; stroke-opacity:0.8; fill:none" points="
  2385.16,786.665 2385.16,987.709 2398.63,987.709 2398.63,786.665 2385.16,786.665 
  "/>
<path clip-path="url(#clip2503)" d="
M2398.63 708.482 L2398.63 987.709 L2412.1 987.709 L2412.1 708.482 L2398.63 708.482 L2398.63 708.482  Z
  " fill="#64b489" fill-rule="evenodd" fill-opacity="1"/>
<polyline clip-path="url(#clip2503)" style="stroke:#c0c1c2; stroke-width:4; stroke-opacity:0.8; fill:none" points="
  2398.63,708.482 2398.63,987.709 2412.1,987.709 2412.1,708.482 2398.63,708.482 
  "/>
<path clip-path="url(#clip2503)" d="
M2412.1 619.129 L2412.1 987.709 L2425.56 987.709 L2425.56 619.129 L2412.1 619.129 L2412.1 619.129  Z
  " fill="#64b489" fill-rule="evenodd" fill-opacity="1"/>
<polyline clip-path="url(#clip2503)" style="stroke:#c0c1c2; stroke-width:4; stroke-opacity:0.8; fill:none" points="
  2412.1,619.129 2412.1,987.709 2425.56,987.709 2425.56,619.129 2412.1,619.129 
  "/>
<path clip-path="url(#clip2503)" d="
M2425.56 686.144 L2425.56 987.709 L2439.03 987.709 L2439.03 686.144 L2425.56 686.144 L2425.56 686.144  Z
  " fill="#64b489" fill-rule="evenodd" fill-opacity="1"/>
<polyline clip-path="url(#clip2503)" style="stroke:#c0c1c2; stroke-width:4; stroke-opacity:0.8; fill:none" points="
  2425.56,686.144 2425.56,987.709 2439.03,987.709 2439.03,686.144 2425.56,686.144 
  "/>
<path clip-path="url(#clip2503)" d="
M2439.03 568.868 L2439.03 987.709 L2452.5 987.709 L2452.5 568.868 L2439.03 568.868 L2439.03 568.868  Z
  " fill="#64b489" fill-rule="evenodd" fill-opacity="1"/>
<polyline clip-path="url(#clip2503)" style="stroke:#c0c1c2; stroke-width:4; stroke-opacity:0.8; fill:none" points="
  2439.03,568.868 2439.03,987.709 2452.5,987.709 2452.5,568.868 2439.03,568.868 
  "/>
<path clip-path="url(#clip2503)" d="
M2452.5 554.907 L2452.5 987.709 L2465.96 987.709 L2465.96 554.907 L2452.5 554.907 L2452.5 554.907  Z
  " fill="#64b489" fill-rule="evenodd" fill-opacity="1"/>
<polyline clip-path="url(#clip2503)" style="stroke:#c0c1c2; stroke-width:4; stroke-opacity:0.8; fill:none" points="
  2452.5,554.907 2452.5,987.709 2465.96,987.709 2465.96,554.907 2452.5,554.907 
  "/>
<path clip-path="url(#clip2503)" d="
M2465.96 563.284 L2465.96 987.709 L2479.43 987.709 L2479.43 563.284 L2465.96 563.284 L2465.96 563.284  Z
  " fill="#64b489" fill-rule="evenodd" fill-opacity="1"/>
<polyline clip-path="url(#clip2503)" style="stroke:#c0c1c2; stroke-width:4; stroke-opacity:0.8; fill:none" points="
  2465.96,563.284 2465.96,987.709 2479.43,987.709 2479.43,563.284 2465.96,563.284 
  "/>
<path clip-path="url(#clip2503)" d="
M2479.43 437.632 L2479.43 987.709 L2492.9 987.709 L2492.9 437.632 L2479.43 437.632 L2479.43 437.632  Z
  " fill="#64b489" fill-rule="evenodd" fill-opacity="1"/>
<polyline clip-path="url(#clip2503)" style="stroke:#c0c1c2; stroke-width:4; stroke-opacity:0.8; fill:none" points="
  2479.43,437.632 2479.43,987.709 2492.9,987.709 2492.9,437.632 2479.43,437.632 
  "/>
<path clip-path="url(#clip2503)" d="
M2492.9 526.984 L2492.9 987.709 L2506.36 987.709 L2506.36 526.984 L2492.9 526.984 L2492.9 526.984  Z
  " fill="#64b489" fill-rule="evenodd" fill-opacity="1"/>
<polyline clip-path="url(#clip2503)" style="stroke:#c0c1c2; stroke-width:4; stroke-opacity:0.8; fill:none" points="
  2492.9,526.984 2492.9,987.709 2506.36,987.709 2506.36,526.984 2492.9,526.984 
  "/>
<path clip-path="url(#clip2503)" d="
M2506.36 585.622 L2506.36 987.709 L2519.83 987.709 L2519.83 585.622 L2506.36 585.622 L2506.36 585.622  Z
  " fill="#64b489" fill-rule="evenodd" fill-opacity="1"/>
<polyline clip-path="url(#clip2503)" style="stroke:#c0c1c2; stroke-width:4; stroke-opacity:0.8; fill:none" points="
  2506.36,585.622 2506.36,987.709 2519.83,987.709 2519.83,585.622 2506.36,585.622 
  "/>
<path clip-path="url(#clip2503)" d="
M2519.83 647.052 L2519.83 987.709 L2533.3 987.709 L2533.3 647.052 L2519.83 647.052 L2519.83 647.052  Z
  " fill="#64b489" fill-rule="evenodd" fill-opacity="1"/>
<polyline clip-path="url(#clip2503)" style="stroke:#c0c1c2; stroke-width:4; stroke-opacity:0.8; fill:none" points="
  2519.83,647.052 2519.83,987.709 2533.3,987.709 2533.3,647.052 2519.83,647.052 
  "/>
<path clip-path="url(#clip2503)" d="
M2533.3 649.844 L2533.3 987.709 L2546.76 987.709 L2546.76 649.844 L2533.3 649.844 L2533.3 649.844  Z
  " fill="#64b489" fill-rule="evenodd" fill-opacity="1"/>
<polyline clip-path="url(#clip2503)" style="stroke:#c0c1c2; stroke-width:4; stroke-opacity:0.8; fill:none" points="
  2533.3,649.844 2533.3,987.709 2546.76,987.709 2546.76,649.844 2533.3,649.844 
  "/>
<path clip-path="url(#clip2503)" d="
M2546.76 750.366 L2546.76 987.709 L2560.23 987.709 L2560.23 750.366 L2546.76 750.366 L2546.76 750.366  Z
  " fill="#64b489" fill-rule="evenodd" fill-opacity="1"/>
<polyline clip-path="url(#clip2503)" style="stroke:#c0c1c2; stroke-width:4; stroke-opacity:0.8; fill:none" points="
  2546.76,750.366 2546.76,987.709 2560.23,987.709 2560.23,750.366 2546.76,750.366 
  "/>
<path clip-path="url(#clip2503)" d="
M2560.23 809.004 L2560.23 987.709 L2573.7 987.709 L2573.7 809.004 L2560.23 809.004 L2560.23 809.004  Z
  " fill="#64b489" fill-rule="evenodd" fill-opacity="1"/>
<polyline clip-path="url(#clip2503)" style="stroke:#c0c1c2; stroke-width:4; stroke-opacity:0.8; fill:none" points="
  2560.23,809.004 2560.23,987.709 2573.7,987.709 2573.7,809.004 2560.23,809.004 
  "/>
<path clip-path="url(#clip2503)" d="
M2573.7 795.042 L2573.7 987.709 L2587.16 987.709 L2587.16 795.042 L2573.7 795.042 L2573.7 795.042  Z
  " fill="#64b489" fill-rule="evenodd" fill-opacity="1"/>
<polyline clip-path="url(#clip2503)" style="stroke:#c0c1c2; stroke-width:4; stroke-opacity:0.8; fill:none" points="
  2573.7,795.042 2573.7,987.709 2587.16,987.709 2587.16,795.042 2573.7,795.042 
  "/>
<path clip-path="url(#clip2503)" d="
M2587.16 881.603 L2587.16 987.709 L2600.63 987.709 L2600.63 881.603 L2587.16 881.603 L2587.16 881.603  Z
  " fill="#64b489" fill-rule="evenodd" fill-opacity="1"/>
<polyline clip-path="url(#clip2503)" style="stroke:#c0c1c2; stroke-width:4; stroke-opacity:0.8; fill:none" points="
  2587.16,881.603 2587.16,987.709 2600.63,987.709 2600.63,881.603 2587.16,881.603 
  "/>
<path clip-path="url(#clip2503)" d="
M2600.63 926.279 L2600.63 987.709 L2614.09 987.709 L2614.09 926.279 L2600.63 926.279 L2600.63 926.279  Z
  " fill="#64b489" fill-rule="evenodd" fill-opacity="1"/>
<polyline clip-path="url(#clip2503)" style="stroke:#c0c1c2; stroke-width:4; stroke-opacity:0.8; fill:none" points="
  2600.63,926.279 2600.63,987.709 2614.09,987.709 2614.09,926.279 2600.63,926.279 
  "/>
<path clip-path="url(#clip2503)" d="
M2614.09 929.071 L2614.09 987.709 L2627.56 987.709 L2627.56 929.071 L2614.09 929.071 L2614.09 929.071  Z
  " fill="#64b489" fill-rule="evenodd" fill-opacity="1"/>
<polyline clip-path="url(#clip2503)" style="stroke:#c0c1c2; stroke-width:4; stroke-opacity:0.8; fill:none" points="
  2614.09,929.071 2614.09,987.709 2627.56,987.709 2627.56,929.071 2614.09,929.071 
  "/>
<path clip-path="url(#clip2503)" d="
M2627.56 912.318 L2627.56 987.709 L2641.03 987.709 L2641.03 912.318 L2627.56 912.318 L2627.56 912.318  Z
  " fill="#64b489" fill-rule="evenodd" fill-opacity="1"/>
<polyline clip-path="url(#clip2503)" style="stroke:#c0c1c2; stroke-width:4; stroke-opacity:0.8; fill:none" points="
  2627.56,912.318 2627.56,987.709 2641.03,987.709 2641.03,912.318 2627.56,912.318 
  "/>
<path clip-path="url(#clip2503)" d="
M2641.03 965.371 L2641.03 987.709 L2654.49 987.709 L2654.49 965.371 L2641.03 965.371 L2641.03 965.371  Z
  " fill="#64b489" fill-rule="evenodd" fill-opacity="1"/>
<polyline clip-path="url(#clip2503)" style="stroke:#c0c1c2; stroke-width:4; stroke-opacity:0.8; fill:none" points="
  2641.03,965.371 2641.03,987.709 2654.49,987.709 2654.49,965.371 2641.03,965.371 
  "/>
<path clip-path="url(#clip2503)" d="
M2654.49 976.54 L2654.49 987.709 L2667.96 987.709 L2667.96 976.54 L2654.49 976.54 L2654.49 976.54  Z
  " fill="#64b489" fill-rule="evenodd" fill-opacity="1"/>
<polyline clip-path="url(#clip2503)" style="stroke:#c0c1c2; stroke-width:4; stroke-opacity:0.8; fill:none" points="
  2654.49,976.54 2654.49,987.709 2667.96,987.709 2667.96,976.54 2654.49,976.54 
  "/>
<path clip-path="url(#clip2503)" d="
M2667.96 970.955 L2667.96 987.709 L2681.43 987.709 L2681.43 970.955 L2667.96 970.955 L2667.96 970.955  Z
  " fill="#64b489" fill-rule="evenodd" fill-opacity="1"/>
<polyline clip-path="url(#clip2503)" style="stroke:#c0c1c2; stroke-width:4; stroke-opacity:0.8; fill:none" points="
  2667.96,970.955 2667.96,987.709 2681.43,987.709 2681.43,970.955 2667.96,970.955 
  "/>
<path clip-path="url(#clip2503)" d="
M2681.43 982.124 L2681.43 987.709 L2694.89 987.709 L2694.89 982.124 L2681.43 982.124 L2681.43 982.124  Z
  " fill="#64b489" fill-rule="evenodd" fill-opacity="1"/>
<polyline clip-path="url(#clip2503)" style="stroke:#c0c1c2; stroke-width:4; stroke-opacity:0.8; fill:none" points="
  2681.43,982.124 2681.43,987.709 2694.89,987.709 2694.89,982.124 2681.43,982.124 
  "/>
<path clip-path="url(#clip2503)" d="
M2694.89 984.917 L2694.89 987.709 L2708.36 987.709 L2708.36 984.917 L2694.89 984.917 L2694.89 984.917  Z
  " fill="#64b489" fill-rule="evenodd" fill-opacity="1"/>
<polyline clip-path="url(#clip2503)" style="stroke:#c0c1c2; stroke-width:4; stroke-opacity:0.8; fill:none" points="
  2694.89,984.917 2694.89,987.709 2708.36,987.709 2708.36,984.917 2694.89,984.917 
  "/>
<path clip-path="url(#clip2503)" d="
M2708.36 984.917 L2708.36 987.709 L2721.83 987.709 L2721.83 984.917 L2708.36 984.917 L2708.36 984.917  Z
  " fill="#64b489" fill-rule="evenodd" fill-opacity="1"/>
<polyline clip-path="url(#clip2503)" style="stroke:#c0c1c2; stroke-width:4; stroke-opacity:0.8; fill:none" points="
  2708.36,984.917 2708.36,987.709 2721.83,987.709 2721.83,984.917 2708.36,984.917 
  "/>
<path clip-path="url(#clip2503)" d="
M2721.83 987.709 L2721.83 987.709 L2735.29 987.709 L2735.29 987.709 L2721.83 987.709 L2721.83 987.709  Z
  " fill="#64b489" fill-rule="evenodd" fill-opacity="1"/>
<polyline clip-path="url(#clip2503)" style="stroke:#c0c1c2; stroke-width:4; stroke-opacity:0.8; fill:none" points="
  2721.83,987.709 2721.83,987.709 2735.29,987.709 2721.83,987.709 
  "/>
<path clip-path="url(#clip2503)" d="
M2735.29 987.709 L2735.29 987.709 L2748.76 987.709 L2748.76 987.709 L2735.29 987.709 L2735.29 987.709  Z
  " fill="#64b489" fill-rule="evenodd" fill-opacity="1"/>
<polyline clip-path="url(#clip2503)" style="stroke:#c0c1c2; stroke-width:4; stroke-opacity:0.8; fill:none" points="
  2735.29,987.709 2735.29,987.709 2748.76,987.709 2735.29,987.709 
  "/>
<path clip-path="url(#clip2503)" d="
M2748.76 984.917 L2748.76 987.709 L2762.23 987.709 L2762.23 984.917 L2748.76 984.917 L2748.76 984.917  Z
  " fill="#64b489" fill-rule="evenodd" fill-opacity="1"/>
<polyline clip-path="url(#clip2503)" style="stroke:#c0c1c2; stroke-width:4; stroke-opacity:0.8; fill:none" points="
  2748.76,984.917 2748.76,987.709 2762.23,987.709 2762.23,984.917 2748.76,984.917 
  "/>
<polyline clip-path="url(#clip2503)" style="stroke:#f96567; stroke-width:20; stroke-opacity:0.95; fill:none" points="
  1641.52,987.692 1648.05,987.678 1654.58,987.655 1661.1,987.615 1667.63,987.55 1674.15,987.444 1680.68,987.276 1687.21,987.012 1693.73,986.607 1700.26,985.997 
  1706.79,985.095 1713.31,983.786 1719.84,981.921 1726.37,979.314 1732.89,975.737 1739.42,970.919 1745.94,964.553 1752.47,956.296 1759,945.788 1765.52,932.667 
  1772.05,916.593 1778.58,897.277 1785.1,874.512 1791.63,848.205 1798.15,818.409 1804.68,785.344 1811.21,749.412 1817.73,711.205 1824.26,671.49 1830.79,631.187 
  1837.31,591.331 1843.84,553.021 1850.37,517.363 1856.89,485.41 1863.42,458.103 1869.94,436.218 1876.47,420.324 1883,410.76 1889.52,407.617 1896.05,410.749 
  1902.58,419.789 1909.1,434.186 1915.63,453.241 1922.15,476.158 1928.68,502.09 1935.21,530.185 1941.73,559.623 1948.26,589.651 1954.79,619.606 1961.31,648.926 
  1967.84,677.161 1974.36,703.968 1980.89,729.107 1987.42,752.429 1993.94,773.865 2000.47,793.407 2007,811.102 2013.52,827.032 2020.05,841.307 2026.58,854.051 
  2033.1,865.401 2039.63,875.492 2046.15,884.46 2052.68,892.435 2059.21,899.539 2065.73,905.884 2072.26,911.573 2078.79,916.699 2085.31,921.344 2091.84,925.581 
  2098.36,929.472 2104.89,933.073 2111.42,936.427 2117.94,939.573 2124.47,942.539 2131,945.348 2137.52,948.014 2144.05,950.547 2150.58,952.95 2157.1,955.223 
  2163.63,957.36 2170.15,959.351 2176.68,961.185 2183.21,962.847 2189.73,964.322 2196.26,965.591 2202.79,966.635 2209.31,967.434 2215.84,967.966 2222.36,968.208 
  2228.89,968.134 2235.42,967.718 2241.94,966.928 2248.47,965.731 2255,964.086 2261.52,961.952 2268.05,959.28 2274.57,956.016 2281.1,952.103 2287.63,947.482 
  2294.15,942.09 2300.68,935.867 2307.21,928.755 2313.73,920.705 2320.26,911.674 2326.79,901.634 2333.31,890.572 2339.84,878.494 2346.36,865.426 2352.89,851.415 
  2359.42,836.53 2365.94,820.865 2372.47,804.532 2379,787.666 2385.52,770.421 2392.05,752.967 2398.57,735.49 2405.1,718.19 2411.63,701.278 2418.15,684.974 
  2424.68,669.504 2431.21,655.095 2437.73,641.973 2444.26,630.356 2450.79,620.45 2457.31,612.44 2463.84,606.487 2470.36,602.719 2476.89,601.23 2483.42,602.068 
  2489.94,605.238 2496.47,610.699 2503,618.363 2509.52,628.098 2516.05,639.734 2522.57,653.063 2529.1,667.852 2535.63,683.848 2542.15,700.785 2548.68,718.393 
  2555.21,736.408 2561.73,754.577 2568.26,772.664 2574.78,790.457 2581.31,807.771 2587.84,824.449 2594.36,840.364 2600.89,855.419 2607.42,869.545 2613.94,882.699 
  2620.47,894.86 2627,906.027 2633.52,916.215 2640.05,925.453 2646.57,933.777 2653.1,941.233 2659.63,947.872 2666.15,953.747 2672.68,958.914 2679.21,963.428 
  2685.73,967.348 2692.26,970.728 2698.78,973.624 2705.31,976.087 2711.84,978.168 2718.36,979.915 2724.89,981.372 2731.42,982.579 2737.94,983.572 2744.47,984.386 
  2751,985.049 2757.52,985.587 2764.05,986.022 2770.57,986.372 2777.1,986.653 2783.63,986.878 2790.15,987.058 2796.68,987.201 2803.21,987.315 2809.73,987.405 
  2816.26,987.477 2822.78,987.533 2829.31,987.577 2835.84,987.611 2842.36,987.637 2848.89,987.657 2855.42,987.671 2861.94,987.682 2868.47,987.69 2874.99,987.696 
  2881.52,987.7 2888.05,987.703 2894.57,987.705 2901.1,987.706 2907.63,987.707 2914.15,987.707 2920.68,987.707 2927.21,987.706 2933.73,987.704 2940.26,987.699 
  
  "/>
</svg>
