<?xml version="1.0" encoding="utf-8"?>
<svg version="1.1" width="612px" height="792px" preserveAspectRatio="none" viewBox="82.843 103.249 146.556 93.294" xmlns="http://www.w3.org/2000/svg">
  <defs>
    <clipPath id="clippath2" transform="">
      <path d="M 246.7394 610.7589 C 228.7521 592.7716 200.1513 592.2093 182.8577 609.5029 C 161.9824 630.3781 130.2509 640.3971 87.66308 639.5597 C 130.2509 640.3971 162.4011 651.672 184.1137 673.3846 C 202.1009 691.3719 230.7018 691.9342 247.9954 674.6406 C 265.289 657.347 264.7267 628.7462 246.7394 610.7589 Z" style="fill: none; clip-rule: nonzero;"/>
    </clipPath>
    <clipPath id="clippath3" transform="" style="clip-path: url(#clippath2);">
      <path d="M 18.99999 14 L 591.99999 14 L 591.99999 778 L 18.99999 778 Z" style="fill: none; clip-rule: nonzero;"/>
    </clipPath>
    <linearGradient id="shading0" gradientUnits="userSpaceOnUse" x1="1113012" y1="-3087084" x2="1113012" y2="-771771">
      <stop offset="0" style="stop-color: transparent;"/>
      <stop offset="0" style="stop-color: rgb(127, 127, 127);"/>
      <stop offset="0.1" style="stop-color: rgb(150, 150, 150);"/>
      <stop offset="0.2" style="stop-color: rgb(166, 166, 166);"/>
      <stop offset="0.3" style="stop-color: rgb(169, 169, 170);"/>
      <stop offset="0.4" style="stop-color: rgb(180, 181, 181);"/>
      <stop offset="0.5" style="stop-color: rgb(191, 192, 193);"/>
      <stop offset="0.6" style="stop-color: rgb(202, 203, 205);"/>
      <stop offset="0.7" style="stop-color: rgb(213, 214, 217);"/>
      <stop offset="0.8" style="stop-color: rgb(224, 226, 228);"/>
      <stop offset="0.9" style="stop-color: rgb(235, 237, 240);"/>
      <stop offset="1" style="stop-color: rgb(246, 248, 252);"/>
      <stop offset="1" style="stop-color: transparent;"/>
    </linearGradient>
    <linearGradient id="shading1" gradientUnits="userSpaceOnUse" x1="1113012" y1="-771771" x2="1113012" y2="1543542">
      <stop offset="0" style="stop-color: transparent;"/>
      <stop offset="0" style="stop-color: rgb(246, 248, 252);"/>
      <stop offset="0.1" style="stop-color: rgb(235, 237, 240);"/>
      <stop offset="0.2" style="stop-color: rgb(224, 226, 228);"/>
      <stop offset="0.3" style="stop-color: rgb(213, 214, 217);"/>
      <stop offset="0.4" style="stop-color: rgb(202, 203, 205);"/>
      <stop offset="0.5" style="stop-color: rgb(191, 192, 193);"/>
      <stop offset="0.6" style="stop-color: rgb(180, 181, 181);"/>
      <stop offset="0.7" style="stop-color: rgb(169, 169, 170);"/>
      <stop offset="0.8" style="stop-color: rgb(166, 166, 166);"/>
      <stop offset="0.9" style="stop-color: rgb(150, 150, 150);"/>
      <stop offset="1" style="stop-color: rgb(127, 127, 127);"/>
      <stop offset="1" style="stop-color: transparent;"/>
    </linearGradient>
    <linearGradient id="shading2" gradientUnits="userSpaceOnUse" x1="1113012" y1="1543542" x2="1113012" y2="3858855">
      <stop offset="0" style="stop-color: transparent;"/>
      <stop offset="0" style="stop-color: rgb(127, 127, 127);"/>
      <stop offset="0.1" style="stop-color: rgb(150, 150, 150);"/>
      <stop offset="0.2" style="stop-color: rgb(166, 166, 166);"/>
      <stop offset="0.3" style="stop-color: rgb(169, 169, 170);"/>
      <stop offset="0.4" style="stop-color: rgb(180, 181, 181);"/>
      <stop offset="0.5" style="stop-color: rgb(191, 192, 193);"/>
      <stop offset="0.6" style="stop-color: rgb(202, 203, 205);"/>
      <stop offset="0.7" style="stop-color: rgb(213, 214, 217);"/>
      <stop offset="0.8" style="stop-color: rgb(224, 226, 228);"/>
      <stop offset="0.9" style="stop-color: rgb(235, 237, 240);"/>
      <stop offset="1" style="stop-color: rgb(246, 248, 252);"/>
      <stop offset="1" style="stop-color: transparent;"/>
    </linearGradient>
    <clipPath id="clippath4" transform="">
      <path d="M 18.99999 14 L 591.99999 14 L 591.99999 778 L 18.99999 778 Z" style="fill: none; clip-rule: nonzero;"/>
    </clipPath>
    <clipPath id="clippath5" transform="">
      <path d="M 249.7092 651.0135 C 241.9454 643.2497 229.4944 643.113 221.8992 650.7082 C 212.731 659.8764 198.8769 664.3587 180.337 664.1551 C 198.8769 664.3587 212.8328 669.1463 222.2046 678.5181 C 229.9684 686.2819 242.4193 686.4186 250.0145 678.8234 C 257.6097 671.2282 257.473 658.7773 249.7092 651.0135 Z" style="fill: none; clip-rule: nonzero;"/>
    </clipPath>
    <clipPath id="clippath6" transform="" style="clip-path: url(#clippath5);">
      <path d="M 18.99999 14 L 591.99999 14 L 591.99999 778 L 18.99999 778 Z" style="fill: none; clip-rule: nonzero;"/>
    </clipPath>
    <linearGradient id="shading3" gradientUnits="userSpaceOnUse" x1="488824.5" y1="-1332472" x2="488824.5" y2="-333118">
      <stop offset="0" style="stop-color: transparent;"/>
      <stop offset="0" style="stop-color: rgb(244, 101, 99);"/>
      <stop offset="0.1" style="stop-color: rgb(244, 101, 99);"/>
      <stop offset="0.2" style="stop-color: rgb(244, 101, 99);"/>
      <stop offset="0.3" style="stop-color: rgb(244, 101, 99);"/>
      <stop offset="0.4" style="stop-color: rgb(244, 101, 99);"/>
      <stop offset="0.5" style="stop-color: rgb(244, 101, 99);"/>
      <stop offset="0.6" style="stop-color: rgb(244, 101, 99);"/>
      <stop offset="0.7" style="stop-color: rgb(244, 101, 99);"/>
      <stop offset="0.8" style="stop-color: rgb(244, 101, 99);"/>
      <stop offset="0.9" style="stop-color: rgb(244, 101, 99);"/>
      <stop offset="1" style="stop-color: rgb(244, 101, 99);"/>
      <stop offset="1" style="stop-color: transparent;"/>
    </linearGradient>
    <linearGradient id="shading4" gradientUnits="userSpaceOnUse" x1="488824.5" y1="-333118" x2="488824.5" y2="666236">
      <stop offset="0" style="stop-color: transparent;"/>
      <stop offset="0" style="stop-color: rgb(244, 101, 99);"/>
      <stop offset="0.1" style="stop-color: rgb(244, 101, 99);"/>
      <stop offset="0.2" style="stop-color: rgb(244, 101, 99);"/>
      <stop offset="0.3" style="stop-color: rgb(244, 101, 99);"/>
      <stop offset="0.4" style="stop-color: rgb(244, 101, 99);"/>
      <stop offset="0.5" style="stop-color: rgb(244, 101, 99);"/>
      <stop offset="0.6" style="stop-color: rgb(244, 101, 99);"/>
      <stop offset="0.7" style="stop-color: rgb(244, 101, 99);"/>
      <stop offset="0.8" style="stop-color: rgb(244, 101, 99);"/>
      <stop offset="0.9" style="stop-color: rgb(244, 101, 99);"/>
      <stop offset="1" style="stop-color: rgb(244, 101, 99);"/>
      <stop offset="1" style="stop-color: transparent;"/>
    </linearGradient>
    <linearGradient id="shading5" gradientUnits="userSpaceOnUse" x1="488824.5" y1="666236" x2="488824.5" y2="1665590">
      <stop offset="0" style="stop-color: transparent;"/>
      <stop offset="0" style="stop-color: rgb(244, 101, 99);"/>
      <stop offset="0.1" style="stop-color: rgb(244, 101, 99);"/>
      <stop offset="0.2" style="stop-color: rgb(244, 101, 99);"/>
      <stop offset="0.3" style="stop-color: rgb(244, 101, 99);"/>
      <stop offset="0.4" style="stop-color: rgb(244, 101, 99);"/>
      <stop offset="0.5" style="stop-color: rgb(244, 101, 99);"/>
      <stop offset="0.6" style="stop-color: rgb(244, 101, 99);"/>
      <stop offset="0.7" style="stop-color: rgb(244, 101, 99);"/>
      <stop offset="0.8" style="stop-color: rgb(244, 101, 99);"/>
      <stop offset="0.9" style="stop-color: rgb(244, 101, 99);"/>
      <stop offset="1" style="stop-color: rgb(244, 101, 99);"/>
      <stop offset="1" style="stop-color: transparent;"/>
    </linearGradient>
    <clipPath id="clippath7" transform="">
      <path d="M 18.99999 14 L 591.99999 14 L 591.99999 778 L 18.99999 778 Z" style="fill: none; clip-rule: nonzero;"/>
    </clipPath>
    <clipPath id="clippath8" transform="">
      <path d="M 266.0986 614.2834 C 251.746 599.9308 228.6418 599.7648 214.494 613.9127 C 197.416 630.9906 171.6755 639.406 137.2725 639.1588 C 171.6755 639.406 197.5396 648.1921 214.8647 665.5173 C 229.2173 679.8699 252.3215 680.0359 266.4693 665.888 C 280.6172 651.7402 280.4512 628.636 266.0986 614.2834 Z" style="fill: none; clip-rule: nonzero;"/>
    </clipPath>
    <clipPath id="clippath9" transform="" style="clip-path: url(#clippath8);">
      <path d="M 18.99999 14 L 591.99999 14 L 591.99999 778 L 18.99999 778 Z" style="fill: none; clip-rule: nonzero;"/>
    </clipPath>
    <linearGradient id="shading6" gradientUnits="userSpaceOnUse" x1="910550.2" y1="-2463278" x2="910550.2" y2="-615819.5">
      <stop offset="0" style="stop-color: transparent;"/>
      <stop offset="0" style="stop-color: rgb(104, 177, 133);"/>
      <stop offset="0.1" style="stop-color: rgb(104, 177, 133);"/>
      <stop offset="0.2" style="stop-color: rgb(104, 177, 133);"/>
      <stop offset="0.3" style="stop-color: rgb(105, 178, 134);"/>
      <stop offset="0.4" style="stop-color: rgb(110, 180, 137);"/>
      <stop offset="0.5" style="stop-color: rgb(114, 183, 140);"/>
      <stop offset="0.6" style="stop-color: rgb(119, 185, 144);"/>
      <stop offset="0.7" style="stop-color: rgb(123, 188, 147);"/>
      <stop offset="0.8" style="stop-color: rgb(128, 191, 150);"/>
      <stop offset="0.9" style="stop-color: rgb(132, 193, 154);"/>
      <stop offset="1" style="stop-color: rgb(137, 196, 157);"/>
      <stop offset="1" style="stop-color: transparent;"/>
    </linearGradient>
    <linearGradient id="shading7" gradientUnits="userSpaceOnUse" x1="910550.2" y1="-615819.5" x2="910550.2" y2="1231639">
      <stop offset="0" style="stop-color: transparent;"/>
      <stop offset="0" style="stop-color: rgb(137, 196, 157);"/>
      <stop offset="0.1" style="stop-color: rgb(132, 193, 154);"/>
      <stop offset="0.2" style="stop-color: rgb(128, 191, 150);"/>
      <stop offset="0.3" style="stop-color: rgb(123, 188, 147);"/>
      <stop offset="0.4" style="stop-color: rgb(119, 185, 144);"/>
      <stop offset="0.5" style="stop-color: rgb(114, 183, 140);"/>
      <stop offset="0.6" style="stop-color: rgb(110, 180, 137);"/>
      <stop offset="0.7" style="stop-color: rgb(105, 178, 134);"/>
      <stop offset="0.8" style="stop-color: rgb(104, 177, 133);"/>
      <stop offset="0.9" style="stop-color: rgb(104, 177, 133);"/>
      <stop offset="1" style="stop-color: rgb(104, 177, 133);"/>
      <stop offset="1" style="stop-color: transparent;"/>
    </linearGradient>
    <linearGradient id="shading8" gradientUnits="userSpaceOnUse" x1="910550.2" y1="1231639" x2="910550.2" y2="3079098">
      <stop offset="0" style="stop-color: transparent;"/>
      <stop offset="0" style="stop-color: rgb(104, 177, 133);"/>
      <stop offset="0.1" style="stop-color: rgb(104, 177, 133);"/>
      <stop offset="0.2" style="stop-color: rgb(104, 177, 133);"/>
      <stop offset="0.3" style="stop-color: rgb(105, 178, 134);"/>
      <stop offset="0.4" style="stop-color: rgb(110, 180, 137);"/>
      <stop offset="0.5" style="stop-color: rgb(114, 183, 140);"/>
      <stop offset="0.6" style="stop-color: rgb(119, 185, 144);"/>
      <stop offset="0.7" style="stop-color: rgb(123, 188, 147);"/>
      <stop offset="0.8" style="stop-color: rgb(128, 191, 150);"/>
      <stop offset="0.9" style="stop-color: rgb(132, 193, 154);"/>
      <stop offset="1" style="stop-color: rgb(137, 196, 157);"/>
      <stop offset="1" style="stop-color: transparent;"/>
    </linearGradient>
    <clipPath id="clippath10" transform="">
      <path d="M 18.99999 14 L 591.99999 14 L 591.99999 778 L 18.99999 778 Z" style="fill: none; clip-rule: nonzero;"/>
    </clipPath>
    <clipPath id="clippath11" transform="">
      <path d="M 269.4344 624.8787 C 260.7193 616.1637 246.6902 616.0629 238.0995 624.6536 C 227.7295 635.0235 212.0996 640.1334 191.2096 639.9834 C 212.0996 640.1334 227.8046 645.4685 238.3246 655.9885 C 247.0397 664.7036 261.0688 664.8044 269.6595 656.2137 C 278.2503 647.6229 278.1495 633.5938 269.4344 624.8787 Z" style="fill: none; clip-rule: nonzero;"/>
    </clipPath>
    <clipPath id="clippath12" transform="" style="clip-path: url(#clippath11);">
      <path d="M 18.99999 14 L 591.99999 14 L 591.99999 778 L 18.99999 778 Z" style="fill: none; clip-rule: nonzero;"/>
    </clipPath>
    <linearGradient id="shading9" gradientUnits="userSpaceOnUse" x1="552897" y1="-1495732" x2="552897" y2="-373933">
      <stop offset="0" style="stop-color: transparent;"/>
      <stop offset="0" style="stop-color: rgb(118, 141, 198);"/>
      <stop offset="0.1" style="stop-color: rgb(118, 141, 198);"/>
      <stop offset="0.2" style="stop-color: rgb(118, 141, 198);"/>
      <stop offset="0.3" style="stop-color: rgb(118, 141, 198);"/>
      <stop offset="0.4" style="stop-color: rgb(118, 141, 198);"/>
      <stop offset="0.5" style="stop-color: rgb(118, 141, 198);"/>
      <stop offset="0.6" style="stop-color: rgb(118, 141, 198);"/>
      <stop offset="0.7" style="stop-color: rgb(118, 141, 198);"/>
      <stop offset="0.8" style="stop-color: rgb(118, 141, 198);"/>
      <stop offset="0.9" style="stop-color: rgb(118, 141, 198);"/>
      <stop offset="1" style="stop-color: rgb(118, 141, 198);"/>
      <stop offset="1" style="stop-color: transparent;"/>
    </linearGradient>
    <linearGradient id="shading10" gradientUnits="userSpaceOnUse" x1="552897" y1="-373933" x2="552897" y2="747866">
      <stop offset="0" style="stop-color: transparent;"/>
      <stop offset="0" style="stop-color: rgb(118, 141, 198);"/>
      <stop offset="0.1" style="stop-color: rgb(118, 141, 198);"/>
      <stop offset="0.2" style="stop-color: rgb(118, 141, 198);"/>
      <stop offset="0.3" style="stop-color: rgb(118, 141, 198);"/>
      <stop offset="0.4" style="stop-color: rgb(118, 141, 198);"/>
      <stop offset="0.5" style="stop-color: rgb(118, 141, 198);"/>
      <stop offset="0.6" style="stop-color: rgb(118, 141, 198);"/>
      <stop offset="0.7" style="stop-color: rgb(118, 141, 198);"/>
      <stop offset="0.8" style="stop-color: rgb(118, 141, 198);"/>
      <stop offset="0.9" style="stop-color: rgb(118, 141, 198);"/>
      <stop offset="1" style="stop-color: rgb(118, 141, 198);"/>
      <stop offset="1" style="stop-color: transparent;"/>
    </linearGradient>
    <linearGradient id="shading11" gradientUnits="userSpaceOnUse" x1="552897" y1="747866" x2="552897" y2="1869665">
      <stop offset="0" style="stop-color: transparent;"/>
      <stop offset="0" style="stop-color: rgb(118, 141, 198);"/>
      <stop offset="0.1" style="stop-color: rgb(118, 141, 198);"/>
      <stop offset="0.2" style="stop-color: rgb(118, 141, 198);"/>
      <stop offset="0.3" style="stop-color: rgb(118, 141, 198);"/>
      <stop offset="0.4" style="stop-color: rgb(118, 141, 198);"/>
      <stop offset="0.5" style="stop-color: rgb(118, 141, 198);"/>
      <stop offset="0.6" style="stop-color: rgb(118, 141, 198);"/>
      <stop offset="0.7" style="stop-color: rgb(118, 141, 198);"/>
      <stop offset="0.8" style="stop-color: rgb(118, 141, 198);"/>
      <stop offset="0.9" style="stop-color: rgb(118, 141, 198);"/>
      <stop offset="1" style="stop-color: rgb(118, 141, 198);"/>
      <stop offset="1" style="stop-color: transparent;"/>
    </linearGradient>
    <clipPath id="clippath13" transform="">
      <path d="M 18.99999 14 L 591.99999 14 L 591.99999 778 L 18.99999 778 Z" style="fill: none; clip-rule: nonzero;"/>
    </clipPath>
    <clipPath id="clippath14" transform="">
      <path d="M 132.4484 642.1506 L 137.7235 642.1506 L 139.3536 647.4257 L 140.9836 642.1506 L 146.2587 642.1506 L 141.9911 638.8905 L 143.6212 633.6154 L 139.3536 636.8756 L 135.0859 633.6154 L 136.7161 638.8905 Z" style="fill: none; clip-rule: nonzero;"/>
    </clipPath>
    <clipPath id="clippath15" transform="" style="clip-path: url(#clippath14);">
      <path d="M 18.99999 14 L 591.99999 14 L 591.99999 778 L 18.99999 778 Z" style="fill: none; clip-rule: nonzero;"/>
    </clipPath>
    <linearGradient id="shading12" gradientUnits="userSpaceOnUse" x1="0.2530687" y1="231405.5" x2="231405.8" y2="0">
      <stop offset="0" style="stop-color: transparent;"/>
      <stop offset="0" style="stop-color: rgb(242, 242, 242);"/>
      <stop offset="0.1" style="stop-color: rgb(245, 245, 195);"/>
      <stop offset="0.2" style="stop-color: rgb(247, 247, 147);"/>
      <stop offset="0.3" style="stop-color: rgb(250, 250, 100);"/>
      <stop offset="0.4" style="stop-color: rgb(252, 252, 52);"/>
      <stop offset="0.5" style="stop-color: rgb(255, 255, 5);"/>
      <stop offset="0.6" style="stop-color: rgb(255, 255, 0);"/>
      <stop offset="0.7" style="stop-color: rgb(255, 255, 0);"/>
      <stop offset="0.8" style="stop-color: rgb(255, 255, 0);"/>
      <stop offset="0.9" style="stop-color: rgb(255, 255, 0);"/>
      <stop offset="1" style="stop-color: rgb(255, 255, 0);"/>
      <stop offset="1" style="stop-color: transparent;"/>
    </linearGradient>
    <linearGradient id="shading13" gradientUnits="userSpaceOnUse" x1="231405.8" y1="0" x2="462811.2" y2="-231405.5">
      <stop offset="0" style="stop-color: transparent;"/>
      <stop offset="0" style="stop-color: rgb(255, 255, 0);"/>
      <stop offset="0.1" style="stop-color: rgb(255, 255, 0);"/>
      <stop offset="0.2" style="stop-color: rgb(255, 255, 0);"/>
      <stop offset="0.3" style="stop-color: rgb(255, 255, 0);"/>
      <stop offset="0.4" style="stop-color: rgb(255, 255, 0);"/>
      <stop offset="0.5" style="stop-color: rgb(255, 255, 5);"/>
      <stop offset="0.6" style="stop-color: rgb(252, 252, 52);"/>
      <stop offset="0.7" style="stop-color: rgb(250, 250, 100);"/>
      <stop offset="0.8" style="stop-color: rgb(247, 247, 147);"/>
      <stop offset="0.9" style="stop-color: rgb(245, 245, 195);"/>
      <stop offset="1" style="stop-color: rgb(242, 242, 242);"/>
      <stop offset="1" style="stop-color: transparent;"/>
    </linearGradient>
    <clipPath id="clippath16" transform="">
      <path d="M 18.99999 14 L 591.99999 14 L 591.99999 778 L 18.99999 778 Z" style="fill: none; clip-rule: nonzero;"/>
    </clipPath>
    <clipPath id="clippath17" transform="">
      <path d="M 175.6912 667.722 L 180.9663 667.7219 L 182.5964 672.997 L 184.2264 667.7219 L 189.5015 667.722 L 185.2338 664.4618 L 186.864 659.1867 L 182.5964 662.447 L 178.3287 659.1867 L 179.9589 664.4618 Z" style="fill: none; clip-rule: nonzero;"/>
    </clipPath>
    <clipPath id="clippath18" transform="" style="clip-path: url(#clippath17);">
      <path d="M 18.99999 14 L 591.99999 14 L 591.99999 778 L 18.99999 778 Z" style="fill: none; clip-rule: nonzero;"/>
    </clipPath>
    <linearGradient id="shading14" gradientUnits="userSpaceOnUse" x1="0.2530687" y1="231405.5" x2="231405.8" y2="0">
      <stop offset="0" style="stop-color: transparent;"/>
      <stop offset="0" style="stop-color: rgb(242, 242, 242);"/>
      <stop offset="0.1" style="stop-color: rgb(245, 245, 195);"/>
      <stop offset="0.2" style="stop-color: rgb(247, 247, 147);"/>
      <stop offset="0.3" style="stop-color: rgb(250, 250, 100);"/>
      <stop offset="0.4" style="stop-color: rgb(252, 252, 52);"/>
      <stop offset="0.5" style="stop-color: rgb(255, 255, 5);"/>
      <stop offset="0.6" style="stop-color: rgb(255, 255, 0);"/>
      <stop offset="0.7" style="stop-color: rgb(255, 255, 0);"/>
      <stop offset="0.8" style="stop-color: rgb(255, 255, 0);"/>
      <stop offset="0.9" style="stop-color: rgb(255, 255, 0);"/>
      <stop offset="1" style="stop-color: rgb(255, 255, 0);"/>
      <stop offset="1" style="stop-color: transparent;"/>
    </linearGradient>
    <linearGradient id="shading15" gradientUnits="userSpaceOnUse" x1="231405.8" y1="0" x2="462811.2" y2="-231405.5">
      <stop offset="0" style="stop-color: transparent;"/>
      <stop offset="0" style="stop-color: rgb(255, 255, 0);"/>
      <stop offset="0.1" style="stop-color: rgb(255, 255, 0);"/>
      <stop offset="0.2" style="stop-color: rgb(255, 255, 0);"/>
      <stop offset="0.3" style="stop-color: rgb(255, 255, 0);"/>
      <stop offset="0.4" style="stop-color: rgb(255, 255, 0);"/>
      <stop offset="0.5" style="stop-color: rgb(255, 255, 5);"/>
      <stop offset="0.6" style="stop-color: rgb(252, 252, 52);"/>
      <stop offset="0.7" style="stop-color: rgb(250, 250, 100);"/>
      <stop offset="0.8" style="stop-color: rgb(247, 247, 147);"/>
      <stop offset="0.9" style="stop-color: rgb(245, 245, 195);"/>
      <stop offset="1" style="stop-color: rgb(242, 242, 242);"/>
      <stop offset="1" style="stop-color: transparent;"/>
    </linearGradient>
    <clipPath id="clippath19" transform="">
      <path d="M 18.99999 14 L 591.99999 14 L 591.99999 778 L 18.99999 778 Z" style="fill: none; clip-rule: nonzero;"/>
    </clipPath>
    <clipPath id="clippath20" transform="">
      <path d="M 185.4085 642.7131 L 190.6836 642.7131 L 192.3137 647.9882 L 193.9437 642.7131 L 199.2188 642.7131 L 194.9512 639.453 L 196.5813 634.1779 L 192.3137 637.4381 L 188.0461 634.1779 L 189.6762 639.453 Z" style="fill: none; clip-rule: nonzero;"/>
    </clipPath>
    <clipPath id="clippath21" transform="" style="clip-path: url(#clippath20);">
      <path d="M 18.99999 14 L 591.99999 14 L 591.99999 778 L 18.99999 778 Z" style="fill: none; clip-rule: nonzero;"/>
    </clipPath>
    <linearGradient id="shading16" gradientUnits="userSpaceOnUse" x1="0.2530687" y1="231405.5" x2="231405.8" y2="0">
      <stop offset="0" style="stop-color: transparent;"/>
      <stop offset="0" style="stop-color: rgb(242, 242, 242);"/>
      <stop offset="0.1" style="stop-color: rgb(245, 245, 195);"/>
      <stop offset="0.2" style="stop-color: rgb(247, 247, 147);"/>
      <stop offset="0.3" style="stop-color: rgb(250, 250, 100);"/>
      <stop offset="0.4" style="stop-color: rgb(252, 252, 52);"/>
      <stop offset="0.5" style="stop-color: rgb(255, 255, 5);"/>
      <stop offset="0.6" style="stop-color: rgb(255, 255, 0);"/>
      <stop offset="0.7" style="stop-color: rgb(255, 255, 0);"/>
      <stop offset="0.8" style="stop-color: rgb(255, 255, 0);"/>
      <stop offset="0.9" style="stop-color: rgb(255, 255, 0);"/>
      <stop offset="1" style="stop-color: rgb(255, 255, 0);"/>
      <stop offset="1" style="stop-color: transparent;"/>
    </linearGradient>
    <linearGradient id="shading17" gradientUnits="userSpaceOnUse" x1="231405.8" y1="0" x2="462811.2" y2="-231405.5">
      <stop offset="0" style="stop-color: transparent;"/>
      <stop offset="0" style="stop-color: rgb(255, 255, 0);"/>
      <stop offset="0.1" style="stop-color: rgb(255, 255, 0);"/>
      <stop offset="0.2" style="stop-color: rgb(255, 255, 0);"/>
      <stop offset="0.3" style="stop-color: rgb(255, 255, 0);"/>
      <stop offset="0.4" style="stop-color: rgb(255, 255, 0);"/>
      <stop offset="0.5" style="stop-color: rgb(255, 255, 5);"/>
      <stop offset="0.6" style="stop-color: rgb(252, 252, 52);"/>
      <stop offset="0.7" style="stop-color: rgb(250, 250, 100);"/>
      <stop offset="0.8" style="stop-color: rgb(247, 247, 147);"/>
      <stop offset="0.9" style="stop-color: rgb(245, 245, 195);"/>
      <stop offset="1" style="stop-color: rgb(242, 242, 242);"/>
      <stop offset="1" style="stop-color: transparent;"/>
    </linearGradient>
    <clipPath id="clippath22" transform="">
      <path d="M 18.99999 14 L 591.99999 14 L 591.99999 778 L 18.99999 778 Z" style="fill: none; clip-rule: nonzero;"/>
    </clipPath>
    <clipPath id="clippath23" transform="">
      <path d="M 247.1928 497.7638 C 229.2055 479.7766 200.6047 479.2142 183.3111 496.5078 C 162.4359 517.3831 130.7044 527.402 88.11654 526.5647 C 130.7044 527.402 162.8545 538.677 184.5671 560.3896 C 202.5544 578.3768 231.1552 578.9392 248.4488 561.6456 C 265.7424 544.352 265.1801 515.7511 247.1928 497.7638 Z" style="fill: none; clip-rule: nonzero;"/>
    </clipPath>
    <clipPath id="clippath24" transform="" style="clip-path: url(#clippath23);">
      <path d="M 18.99999 14 L 591.99999 14 L 591.99999 778 L 18.99999 778 Z" style="fill: none; clip-rule: nonzero;"/>
    </clipPath>
    <clipPath id="clippath28" transform="">
      <path d="M 18.99999 14 L 591.99999 14 L 591.99999 778 L 18.99999 778 Z" style="fill: none; clip-rule: nonzero;"/>
    </clipPath>
    <clipPath id="clippath29" transform="">
      <path d="M 176.1446 554.7269 L 181.4197 554.7269 L 183.0498 560.002 L 184.6798 554.7269 L 189.9549 554.7269 L 185.6873 551.4668 L 187.3174 546.1917 L 183.0498 549.4519 L 178.7822 546.1917 L 180.4123 551.4668 Z" style="fill: none; clip-rule: nonzero;"/>
    </clipPath>
    <clipPath id="clippath30" transform="" style="clip-path: url(#clippath29);">
      <path d="M 18.99999 14 L 591.99999 14 L 591.99999 778 L 18.99999 778 Z" style="fill: none; clip-rule: nonzero;"/>
    </clipPath>
    <clipPath id="clippath32" transform="">
      <path d="M 185.862 529.7181 L 191.1371 529.7181 L 192.7671 534.9931 L 194.3972 529.7181 L 199.6723 529.7181 L 195.4046 526.4579 L 197.0348 521.1829 L 192.7671 524.4431 L 188.4995 521.1829 L 190.1296 526.4579 Z" style="fill: none; clip-rule: nonzero;"/>
    </clipPath>
    <clipPath id="clippath33" transform="" style="clip-path: url(#clippath32);">
      <path d="M 18.99999 14 L 591.99999 14 L 591.99999 778 L 18.99999 778 Z" style="fill: none; clip-rule: nonzero;"/>
    </clipPath>
  </defs>
  <g transform="matrix(1 0 0 -1 0 792)">
    <g transform="">
      <path d="M 18.99999 14.08002 L 591.99999 14.08002 L 591.99999 778.00002 L 18.99999 778.00002 Z" style="fill: none;"/>
    </g>
    <g transform="">
      <path d="M 18.99999 14 L 591.99999 14 L 591.99999 778 L 18.99999 778 Z" style="fill: none;"/>
    </g>
    <g transform="">
      <path d="M 246.7394 610.7589 C 228.7521 592.7716 200.1513 592.2093 182.8577 609.5029 C 161.9824 630.3781 130.2509 640.3971 87.66308 639.5597 C 130.2509 640.3971 162.4011 651.672 184.1137 673.3846 C 202.1009 691.3719 230.7018 691.9342 247.9954 674.6406 C 265.289 657.347 264.7267 628.7462 246.7394 610.7589 Z" style="fill: none;"/>
    </g>
    <g style="clip-path: url(#clippath2);">
      <g transform="">
        <path d="M 18.99999 14 L 591.99999 14 L 591.99999 778 L 18.99999 778 Z" style="fill: none;"/>
      </g>
    </g>
    <g style="clip-path: url(#clippath3);">
      <g transform="matrix(-0.0000422002 0.0000422002 0.0000422002 0.0000422002 214.1705 578.19)">
        <rect x="-11564168.240120417" y="-9388121.98816308" width="16635008.018926943" height="16635008.018926943" style="fill: url(#shading0);"/>
      </g>
    </g>
    <g style="clip-path: url(#clippath3);">
      <g transform="matrix(-0.0000422002 0.0000422002 0.0000422002 0.0000422002 214.1705 578.19)">
        <rect x="-11564168.240120417" y="-9388121.98816308" width="16635008.018926943" height="16635008.018926943" style="fill: url(#shading1);"/>
      </g>
    </g>
    <g style="clip-path: url(#clippath3);">
      <g transform="matrix(-0.0000422002 0.0000422002 0.0000422002 0.0000422002 214.1705 578.19)">
        <rect x="-11564168.240120417" y="-9388121.98816308" width="16635008.018926943" height="16635008.018926943" style="fill: url(#shading2);"/>
      </g>
    </g>
    <g transform="">
      <path d="M 18.99999 14 L 591.99999 14 L 591.99999 778 L 18.99999 778 Z" style="fill: none;"/>
    </g>
    <g style="clip-path: url(#clippath4);">
      <g transform="matrix(-0.0000422002 0.0000422002 0.0000422002 0.0000422002 214.1705 578.19)">
        <path d="M 0 771771 C 0 345533.6 332208.3 0 742008 0 C 1236680 0 1731352 -257257 2226024 -771771 C 1731352 -257257 1484016 257257 1484016 771771 C 1484016 1198008 1151808 1543542 742008 1543542 C 332208.3 1543542 0 1198008 0 771771 Z" style="fill: none; stroke: rgb(59, 56, 56); stroke-opacity: 1; stroke-miterlimit: 8; stroke-width: 12700px; stroke-dashoffset: 0px;"/>
      </g>
    </g>
    <g transform="">
      <path d="M 249.7092 651.0135 C 241.9454 643.2497 229.4944 643.113 221.8992 650.7082 C 212.731 659.8764 198.8769 664.3587 180.337 664.1551 C 198.8769 664.3587 212.8328 669.1463 222.2046 678.5181 C 229.9684 686.2819 242.4193 686.4186 250.0145 678.8234 C 257.6097 671.2282 257.473 658.7773 249.7092 651.0135 Z" style="fill: none;"/>
    </g>
    <g style="clip-path: url(#clippath5);">
      <g transform="">
        <path d="M 18.99999 14 L 591.99999 14 L 591.99999 778 L 18.99999 778 Z" style="fill: none;"/>
      </g>
    </g>
    <g style="clip-path: url(#clippath6);">
      <g transform="matrix(-0.0000422002 0.0000422002 0.0000422002 0.0000422002 235.6516 636.9558)">
        <rect x="-12005928.41354156" y="-10338911.037304124" width="16635008.018926943" height="16635008.018926943" style="fill: url(#shading3);"/>
      </g>
    </g>
    <g style="clip-path: url(#clippath6);">
      <g transform="matrix(-0.0000422002 0.0000422002 0.0000422002 0.0000422002 235.6516 636.9558)">
        <rect x="-12005928.41354156" y="-10338911.037304124" width="16635008.018926943" height="16635008.018926943" style="fill: url(#shading4);"/>
      </g>
    </g>
    <g style="clip-path: url(#clippath6);">
      <g transform="matrix(-0.0000422002 0.0000422002 0.0000422002 0.0000422002 235.6516 636.9558)">
        <rect x="-12005928.41354156" y="-10338911.037304124" width="16635008.018926943" height="16635008.018926943" style="fill: url(#shading5);"/>
      </g>
    </g>
    <g transform="">
      <path d="M 18.99999 14 L 591.99999 14 L 591.99999 778 L 18.99999 778 Z" style="fill: none;"/>
    </g>
    <g style="clip-path: url(#clippath7);">
      <g transform="matrix(-0.0000422002 0.0000422002 0.0000422002 0.0000422002 235.6516 636.9558)">
        <path d="M 0 333118 C 0 149142 145902.8 0 325883 0 C 543138.3 0 760393.6 -111039.3 977649 -333118 C 760393.6 -111039.3 651766 111039.3 651766 333118 C 651766 517094 505863.2 666236 325883 666236 C 145902.8 666236 0 517094 0 333118 Z" style="fill: none; stroke: rgb(59, 56, 56); stroke-opacity: 1; stroke-miterlimit: 8; stroke-width: 12700px; stroke-dashoffset: 0px;"/>
      </g>
    </g>
    <g transform="">
      <path d="M 266.0986 614.2834 C 251.746 599.9308 228.6418 599.7648 214.494 613.9127 C 197.416 630.9906 171.6755 639.406 137.2725 639.1588 C 171.6755 639.406 197.5396 648.1921 214.8647 665.5173 C 229.2173 679.8699 252.3215 680.0359 266.4693 665.888 C 280.6172 651.7402 280.4512 628.636 266.0986 614.2834 Z" style="fill: none;"/>
    </g>
    <g style="clip-path: url(#clippath8);">
      <g transform="">
        <path d="M 18.99999 14 L 591.99999 14 L 591.99999 778 L 18.99999 778 Z" style="fill: none;"/>
      </g>
    </g>
    <g style="clip-path: url(#clippath9);">
      <g transform="matrix(-0.0000422002 0.0000422002 0.0000422002 0.0000422002 240.1109 588.2958)">
        <rect x="-11376555.207373621" y="-9815208.046604563" width="16635008.018926943" height="16635008.018926943" style="fill: url(#shading6);"/>
      </g>
    </g>
    <g style="clip-path: url(#clippath9);">
      <g transform="matrix(-0.0000422002 0.0000422002 0.0000422002 0.0000422002 240.1109 588.2958)">
        <rect x="-11376555.207373621" y="-9815208.046604563" width="16635008.018926943" height="16635008.018926943" style="fill: url(#shading7);"/>
      </g>
    </g>
    <g style="clip-path: url(#clippath9);">
      <g transform="matrix(-0.0000422002 0.0000422002 0.0000422002 0.0000422002 240.1109 588.2958)">
        <rect x="-11376555.207373621" y="-9815208.046604563" width="16635008.018926943" height="16635008.018926943" style="fill: url(#shading8);"/>
      </g>
    </g>
    <g transform="">
      <path d="M 18.99999 14 L 591.99999 14 L 591.99999 778 L 18.99999 778 Z" style="fill: none;"/>
    </g>
    <g style="clip-path: url(#clippath10);">
      <g transform="matrix(-0.0000422002 0.0000422002 0.0000422002 0.0000422002 240.1109 588.2958)">
        <path d="M 0 615819.5 C 0 275711.8 271778.1 0 607033.5 0 C 1011722 0 1416411 -205273.2 1821100 -615819.5 C 1416411 -205273.2 1214067 205273.2 1214067 615819.5 C 1214067 955927.2 942288.8 1231639 607033.5 1231639 C 271778.1 1231639 0 955927.2 0 615819.5 Z" style="fill: none; stroke: rgb(59, 56, 56); stroke-opacity: 1; stroke-miterlimit: 8; stroke-width: 12700px; stroke-dashoffset: 0px;"/>
      </g>
    </g>
    <g transform="">
      <path d="M 269.4344 624.8787 C 260.7193 616.1637 246.6902 616.0629 238.0995 624.6536 C 227.7295 635.0235 212.0996 640.1334 191.2096 639.9834 C 212.0996 640.1334 227.8046 645.4685 238.3246 655.9885 C 247.0397 664.7036 261.0688 664.8044 269.6595 656.2137 C 278.2503 647.6229 278.1495 633.5938 269.4344 624.8787 Z" style="fill: none;"/>
    </g>
    <g style="clip-path: url(#clippath11);">
      <g transform="">
        <path d="M 18.99999 14 L 591.99999 14 L 591.99999 778 L 18.99999 778 Z" style="fill: none;"/>
      </g>
    </g>
    <g style="clip-path: url(#clippath12);">
      <g transform="matrix(-0.0000422002 0.0000422002 0.0000422002 0.0000422002 253.6544 609.0987)">
        <rect x="-11462566.729604816" y="-10222154.370978689" width="16635008.018926943" height="16635008.018926943" style="fill: url(#shading9);"/>
      </g>
    </g>
    <g style="clip-path: url(#clippath12);">
      <g transform="matrix(-0.0000422002 0.0000422002 0.0000422002 0.0000422002 253.6544 609.0987)">
        <rect x="-11462566.729604816" y="-10222154.370978689" width="16635008.018926943" height="16635008.018926943" style="fill: url(#shading10);"/>
      </g>
    </g>
    <g style="clip-path: url(#clippath12);">
      <g transform="matrix(-0.0000422002 0.0000422002 0.0000422002 0.0000422002 253.6544 609.0987)">
        <rect x="-11462566.729604816" y="-10222154.370978689" width="16635008.018926943" height="16635008.018926943" style="fill: url(#shading11);"/>
      </g>
    </g>
    <g transform="">
      <path d="M 18.99999 14 L 591.99999 14 L 591.99999 778 L 18.99999 778 Z" style="fill: none;"/>
    </g>
    <g style="clip-path: url(#clippath13);">
      <g transform="matrix(-0.0000422002 0.0000422002 0.0000422002 0.0000422002 253.6544 609.0987)">
        <path d="M 0 373933 C 0 167415.5 165026.9 0 368598 0 C 614330 0 860062 -124644.3 1105794 -373933 C 860062 -124644.3 737196 124644.3 737196 373933 C 737196 580450.5 572169 747866 368598 747866 C 165026.9 747866 0 580450.5 0 373933 Z" style="fill: none; stroke: rgb(59, 56, 56); stroke-opacity: 1; stroke-miterlimit: 8; stroke-width: 12700px; stroke-dashoffset: 0px;"/>
      </g>
    </g>
    <g style="clip-path: url(#clippath13);">
      <g transform="">
        <path d="M 229.7868 696.3979 L 285.8302 696.3979 L 285.8302 578.19 L 229.7868 578.19 Z" style="fill: rgb(255, 255, 255); fill-opacity: 1;"/>
        <path d="M 84.91313 639.7155 C 84.91313 642.105 86.85022 644.0421 89.23973 644.0421 C 91.62924 644.0421 93.56632 642.105 93.56632 639.7155 C 93.56632 637.326 91.62924 635.3889 89.23973 635.3889 C 86.85022 635.3889 84.91313 637.326 84.91313 639.7155 Z" style="fill: rgb(255, 255, 255); fill-opacity: 1;"/>
      </g>
      <g transform="matrix(0.00005968 0 0 -0.00005968 84.91313 644.0421)">
        <path d="M 0 72496.5 C 0 32457.79 32457.79 0 72496.5 0 C 112535.2 0 144993 32457.79 144993 72496.5 C 144993 112535.2 112535.2 144993 72496.5 144993 C 32457.79 144993 0 112535.2 0 72496.5 Z" style="fill: none; stroke: rgb(0, 0, 0); stroke-opacity: 1; stroke-miterlimit: 8; stroke-width: 12700px; stroke-dashoffset: 0px;"/>
      </g>
    </g>
    <g transform="">
      <path d="M 132.4484 642.1506 L 137.7235 642.1506 L 139.3536 647.4257 L 140.9836 642.1506 L 146.2587 642.1506 L 141.9911 638.8905 L 143.6212 633.6154 L 139.3536 636.8756 L 135.0859 633.6154 L 136.7161 638.8905 Z" style="fill: none;"/>
    </g>
    <g style="clip-path: url(#clippath14);">
      <g transform="">
        <path d="M 18.99999 14 L 591.99999 14 L 591.99999 778 L 18.99999 778 Z" style="fill: none;"/>
      </g>
    </g>
    <g style="clip-path: url(#clippath15);">
      <g transform="matrix(0.00005968 0 0 -0.00005968 132.4484 647.4257)">
        <rect x="-2219308.164002571" y="-2422489.9983310997" width="10254684.815894896" height="13270768.585275747" style="fill: url(#shading12);"/>
      </g>
    </g>
    <g style="clip-path: url(#clippath15);">
      <g transform="matrix(0.00005968 0 0 -0.00005968 132.4484 647.4257)">
        <rect x="-2219308.164002571" y="-2422489.9983310997" width="10254684.815894896" height="13270768.585275747" style="fill: url(#shading13);"/>
      </g>
    </g>
    <g transform="">
      <path d="M 18.99999 14 L 591.99999 14 L 591.99999 778 L 18.99999 778 Z" style="fill: none;"/>
    </g>
    <g style="clip-path: url(#clippath16);">
      <g transform="matrix(0.00005968 0 0 -0.00005968 132.4484 647.4257)">
        <path d="M 0.2530687 88389.05 L 88389.81 88389.55 L 115703 0 L 143016.2 88389.55 L 231405.8 88389.05 L 159896.9 143016.2 L 187211.4 231405.5 L 115703 176777.3 L 44194.65 231405.5 L 71509.11 143016.2 Z" style="fill: none; stroke: rgb(0, 0, 0); stroke-opacity: 1; stroke-miterlimit: 8; stroke-width: 12700px; stroke-dashoffset: 0px;"/>
      </g>
    </g>
    <g transform="">
      <path d="M 175.6912 667.722 L 180.9663 667.7219 L 182.5964 672.997 L 184.2264 667.7219 L 189.5015 667.722 L 185.2338 664.4618 L 186.864 659.1867 L 182.5964 662.447 L 178.3287 659.1867 L 179.9589 664.4618 Z" style="fill: none;"/>
    </g>
    <g style="clip-path: url(#clippath17);">
      <g transform="">
        <path d="M 18.99999 14 L 591.99999 14 L 591.99999 778 L 18.99999 778 Z" style="fill: none;"/>
      </g>
    </g>
    <g style="clip-path: url(#clippath18);">
      <g transform="matrix(0.00005968 0 0 -0.00005968 175.6912 672.997)">
        <rect x="-2943885.4263502504" y="-1994016.7600423861" width="10254684.815894896" height="13270768.585275747" style="fill: url(#shading14);"/>
      </g>
    </g>
    <g style="clip-path: url(#clippath18);">
      <g transform="matrix(0.00005968 0 0 -0.00005968 175.6912 672.997)">
        <rect x="-2943885.4263502504" y="-1994016.7600423861" width="10254684.815894896" height="13270768.585275747" style="fill: url(#shading15);"/>
      </g>
    </g>
    <g transform="">
      <path d="M 18.99999 14 L 591.99999 14 L 591.99999 778 L 18.99999 778 Z" style="fill: none;"/>
    </g>
    <g style="clip-path: url(#clippath19);">
      <g transform="matrix(0.00005968 0 0 -0.00005968 175.6912 672.997)">
        <path d="M 0.2530687 88389.05 L 88389.81 88389.55 L 115703 0 L 143016.2 88389.55 L 231405.8 88389.05 L 159896.9 143016.2 L 187211.4 231405.5 L 115703 176777.3 L 44194.65 231405.5 L 71509.11 143016.2 Z" style="fill: none; stroke: rgb(0, 0, 0); stroke-opacity: 1; stroke-miterlimit: 8; stroke-width: 12700px; stroke-dashoffset: 0px;"/>
      </g>
    </g>
    <g transform="">
      <path d="M 185.4085 642.7131 L 190.6836 642.7131 L 192.3137 647.9882 L 193.9437 642.7131 L 199.2188 642.7131 L 194.9512 639.453 L 196.5813 634.1779 L 192.3137 637.4381 L 188.0461 634.1779 L 189.6762 639.453 Z" style="fill: none;"/>
    </g>
    <g style="clip-path: url(#clippath20);">
      <g transform="">
        <path d="M 18.99999 14 L 591.99999 14 L 591.99999 778 L 18.99999 778 Z" style="fill: none;"/>
      </g>
    </g>
    <g style="clip-path: url(#clippath21);">
      <g transform="matrix(0.00005968 0 0 -0.00005968 185.4085 647.9882)">
        <rect x="-3106708.7086402755" y="-2413064.736551786" width="10254684.815894896" height="13270768.585275747" style="fill: url(#shading16);"/>
      </g>
    </g>
    <g style="clip-path: url(#clippath21);">
      <g transform="matrix(0.00005968 0 0 -0.00005968 185.4085 647.9882)">
        <rect x="-3106708.7086402755" y="-2413064.736551786" width="10254684.815894896" height="13270768.585275747" style="fill: url(#shading17);"/>
      </g>
    </g>
    <g transform="">
      <path d="M 18.99999 14 L 591.99999 14 L 591.99999 778 L 18.99999 778 Z" style="fill: none;"/>
    </g>
    <g style="clip-path: url(#clippath22);">
      <g transform="matrix(0.00005968 0 0 -0.00005968 185.4085 647.9882)">
        <path d="M 0.2530687 88389.05 L 88389.81 88389.55 L 115703 0 L 143016.2 88389.55 L 231405.8 88389.05 L 159896.9 143016.2 L 187211.4 231405.5 L 115703 176777.3 L 44194.65 231405.5 L 71509.11 143016.2 Z" style="fill: none; stroke: rgb(0, 0, 0); stroke-opacity: 1; stroke-miterlimit: 8; stroke-width: 12700px; stroke-dashoffset: 0px;"/>
      </g>
    </g>
    <g transform="">
      <path d="M 247.1928 497.7638 C 229.2055 479.7766 200.6047 479.2142 183.3111 496.5078 C 162.4359 517.3831 130.7044 527.402 88.11654 526.5647 C 130.7044 527.402 162.8545 538.677 184.5671 560.3896 C 202.5544 578.3768 231.1552 578.9392 248.4488 561.6456 C 265.7424 544.352 265.1801 515.7511 247.1928 497.7638 Z" style="fill: none;"/>
    </g>
    <g style="clip-path: url(#clippath23);">
      <g transform="">
        <path d="M 18.99999 14 L 591.99999 14 L 591.99999 778 L 18.99999 778 Z" style="fill: none;"/>
      </g>
    </g>
    <g style="clip-path: url(#clippath24);">
      <g transform="matrix(-0.0000422002 0.0000422002 0.0000422002 0.0000422002 214.624 465.195)"/>
    </g>
    <g transform="">
      <path d="M 18.99999 14 L 591.99999 14 L 591.99999 778 L 18.99999 778 Z" style="fill: none;"/>
    </g>
    <g transform="">
      <path d="M 18.99999 14 L 591.99999 14 L 591.99999 778 L 18.99999 778 Z" style="fill: none;"/>
    </g>
    <g style="clip-path: url(#clippath28);"/>
    <g transform="">
      <path d="M 176.1446 554.7269 L 181.4197 554.7269 L 183.0498 560.002 L 184.6798 554.7269 L 189.9549 554.7269 L 185.6873 551.4668 L 187.3174 546.1917 L 183.0498 549.4519 L 178.7822 546.1917 L 180.4123 551.4668 Z" style="fill: none;"/>
    </g>
    <g style="clip-path: url(#clippath29);">
      <g transform="">
        <path d="M 18.99999 14 L 591.99999 14 L 591.99999 778 L 18.99999 778 Z" style="fill: none;"/>
      </g>
    </g>
    <g style="clip-path: url(#clippath30);">
      <g transform="matrix(0.00005968 0 0 -0.00005968 176.1446 560.002)"/>
    </g>
    <g transform="">
      <path d="M 18.99999 14 L 591.99999 14 L 591.99999 778 L 18.99999 778 Z" style="fill: none;"/>
    </g>
    <g style="clip-path: url(#clippath33);"/>
    <g transform="">
      <path d="M 18.99999 14 L 591.99999 14 L 591.99999 778 L 18.99999 778 Z" style="fill: none;"/>
    </g>
  </g>
</svg>